<?xml version="1.0" encoding="utf-8"?>
<!-- Generator: Adobe Illustrator 16.0.0, SVG Export Plug-In . SVG Version: 6.00 Build 0)  -->
<svg version="1.2" baseProfile="tiny" xmlns="http://www.w3.org/2000/svg" xmlns:xlink="http://www.w3.org/1999/xlink" x="0px"
	 y="0px" width="800px" height="200px" viewBox="0 0 800 200" xml:space="preserve">
<g id="Layer_1">
	<g display="none">
		<path display="inline" d="M33.405,107.745h-12.85c0-2.635,0.725-4.53,2.175-5.684c1.449-1.152,3.03-1.73,4.745-1.73h5.931
			c0-2.57,0.198-5.205,0.593-7.908c0.395-2.702,1.087-5.304,2.076-7.809c0.988-2.503,2.306-4.893,3.954-7.167
			c1.646-2.273,3.722-4.233,6.228-5.881c2.503-1.646,5.469-2.965,8.896-3.954c3.426-0.989,7.414-1.483,11.96-1.483
			c1.12,0,2.158,0.38,3.114,1.137c0.955,0.758,1.433,2.357,1.433,4.794v1.977h-5.14c-3.822,0-7.067,0.445-9.736,1.334
			c-2.668,0.89-4.893,2.076-6.672,3.559c-1.779,1.482-3.197,3.147-4.25,4.992c-1.055,1.846-1.846,3.741-2.372,5.684
			c-0.528,1.944-0.857,3.855-0.989,5.733c-0.133,1.878-0.198,3.543-0.198,4.992h47.15c0,1.45-0.198,2.653-0.593,3.608
			c-0.395,0.956-0.923,1.714-1.582,2.273c-0.659,0.561-1.401,0.956-2.224,1.186c-0.825,0.232-1.665,0.347-2.521,0.347h-40.23V137.3
			c0,5.601-0.494,10.345-1.482,14.233c-0.989,3.888-2.555,7.051-4.695,9.489c-2.142,2.438-4.877,4.201-8.204,5.289
			c-3.329,1.087-7.332,1.631-12.01,1.631c-2.108,0-3.559-0.528-4.35-1.582c-0.791-1.055-1.186-2.802-1.186-5.238v-1.088h5.536
			c2.965,0,5.551-0.215,7.759-0.643c2.207-0.429,4.019-1.433,5.437-3.015c1.417-1.581,2.487-3.889,3.212-6.919
			c0.725-3.032,1.087-7.151,1.087-12.355V107.745z"/>
		<path display="inline" d="M164.475,130.381c0,1.45-0.198,2.619-0.593,3.509s-0.924,1.581-1.582,2.076
			c-0.66,0.494-1.401,0.84-2.224,1.037c-0.825,0.198-1.665,0.297-2.521,0.297h-30.939c-0.726,0-1.45-0.082-2.174-0.247
			c-0.726-0.164-1.369-0.46-1.928-0.89c-0.561-0.428-1.005-1.021-1.334-1.779c-0.331-0.757-0.494-1.762-0.494-3.015v-23.624H90.636
			c-0.923,3.427-1.616,7.084-2.076,10.972c-0.462,3.889-0.692,8.105-0.692,12.652c0,2.505-0.544,4.119-1.631,4.844
			c-1.087,0.726-2.357,1.087-3.806,1.087h-3.46v-5.931c0-8.565,0.742-16.128,2.224-22.686c1.483-6.556,3.492-12.257,6.03-17.1
			c2.536-4.844,5.486-8.879,8.847-12.109c3.361-3.228,6.919-5.832,10.675-7.809c3.756-1.977,7.594-3.394,11.516-4.25
			c3.92-0.855,7.693-1.285,11.318-1.285c2.24,0,3.69,0.561,4.349,1.681c0.658,1.121,0.989,2.34,0.989,3.657v2.57h-5.338v56.343
			H164.475z M120.686,75.027c-5.799,1.319-11.105,4.037-15.914,8.155c-4.811,4.119-8.699,9.835-11.664,17.15h27.578V75.027z"/>
		<path display="inline" d="M198.576,100.332c1.251,0,2.422,0.083,3.509,0.247c1.087,0.166,2.026,0.528,2.817,1.088
			c0.791,0.561,1.416,1.368,1.878,2.422c0.46,1.055,0.692,2.438,0.692,4.151c0,4.086-1.038,8.105-3.114,12.059
			c-2.076,3.954-5.552,7.315-10.428,10.083h40.428c0,1.45-0.198,2.619-0.593,3.509c-0.395,0.89-0.923,1.581-1.582,2.076
			c-0.659,0.494-1.4,0.84-2.224,1.037c-0.825,0.198-1.665,0.297-2.521,0.297H160.52c-0.726,0-1.451-0.082-2.175-0.247
			c-0.726-0.164-1.369-0.46-1.928-0.89c-0.561-0.428-1.005-1.021-1.334-1.779c-0.331-0.757-0.495-1.762-0.495-3.015v-0.988h6.228
			c5.469,0,10.213-0.361,14.234-1.088c4.019-0.724,7.414-1.68,10.181-2.866s5.024-2.553,6.771-4.103
			c1.745-1.547,3.114-3.163,4.102-4.843c0.988-1.681,1.646-3.361,1.977-5.041c0.329-1.681,0.494-3.245,0.494-4.695h-35.09
			c-1.253,0-2.422-0.114-3.509-0.347c-1.087-0.229-2.026-0.657-2.817-1.284c-0.791-0.626-1.418-1.483-1.878-2.57
			c-0.461-1.088-0.692-2.487-0.692-4.201c0-3.623,0.625-7.379,1.878-11.269c1.251-3.887,3.509-7.463,6.771-10.725
			c3.262-3.262,7.742-5.946,13.443-8.056c5.699-2.108,12.999-3.163,21.895-3.163c0.724,0,1.449,0.083,2.174,0.247
			c0.725,0.166,1.367,0.462,1.928,0.89c0.559,0.43,1.004,1.022,1.334,1.779c0.329,0.758,0.494,1.764,0.494,3.015v1.977h-7.216
			c-5.337,0-9.869,0.445-13.591,1.334c-3.724,0.89-6.837,2.076-9.341,3.559c-2.505,1.482-4.482,3.147-5.931,4.992
			c-1.451,1.846-2.538,3.741-3.262,5.684c-0.726,1.944-1.186,3.855-1.384,5.733c-0.198,1.878-0.296,3.543-0.296,4.992H198.576z"/>
		<path display="inline" d="M239.101,130.381c6.589,0,12.025-0.576,16.31-1.73c4.283-1.151,7.661-2.898,10.132-5.238
			c2.471-2.339,4.201-5.288,5.189-8.847s1.482-7.775,1.482-12.652c0-2.438,0.626-4.036,1.878-4.794
			c1.251-0.757,2.635-1.137,4.151-1.137h2.867v5.931c0,7.116-0.989,12.948-2.965,17.495c-1.977,4.547-5.305,8.205-9.983,10.973
			h42.306c0,1.45-0.198,2.619-0.593,3.509s-0.924,1.581-1.582,2.076c-0.66,0.494-1.401,0.84-2.224,1.037
			c-0.825,0.198-1.665,0.297-2.521,0.297h-65.535c-1.648,0-2.982-0.213-4.003-0.643c-1.022-0.428-1.813-1.021-2.373-1.779
			c-0.561-0.757-0.939-1.646-1.137-2.669c-0.198-1.021-0.296-2.091-0.296-3.212c0-5.996,0.593-11.696,1.779-17.101
			c1.186-5.402,2.817-10.395,4.893-14.976c2.076-4.579,4.53-8.73,7.364-12.455c2.833-3.722,5.896-6.87,9.192-9.439h-21.548
			c-2.241,0-3.691-0.559-4.349-1.681c-0.66-1.12-0.988-2.338-0.988-3.657v-2.57h38.648c3.03-1.054,6.161-1.582,9.391-1.582
			c1.053,0,2.091,0.148,3.114,0.445c1.021,0.296,1.96,0.808,2.817,1.532c0.856,0.726,1.548,1.698,2.076,2.916
			c0.527,1.22,0.791,2.752,0.791,4.597h-8.007c-5.668,0-10.742,1.45-15.222,4.349c-4.482,2.9-8.288,6.854-11.417,11.861
			c-3.131,5.009-5.52,10.873-7.167,17.595C239.924,115.554,239.101,122.737,239.101,130.381z"/>
		<path display="inline" d="M365.327,130.381c0,1.45-0.198,2.619-0.593,3.509s-0.923,1.581-1.582,2.076
			c-0.66,0.494-1.401,0.84-2.224,1.037c-0.825,0.198-1.665,0.297-2.521,0.297h-49.423c-1.252,0-2.421-0.082-3.509-0.247
			c-1.087-0.164-2.026-0.526-2.817-1.087c-0.791-0.56-1.418-1.367-1.878-2.422c-0.462-1.054-0.692-2.438-0.692-4.151
			c0-11.664,1.285-21.532,3.855-29.605c2.57-8.071,5.931-14.595,10.083-19.571c4.151-4.975,8.862-8.566,14.135-10.774
			c5.271-2.207,10.642-3.312,16.112-3.312c2.239,0,3.689,0.561,4.349,1.681c0.658,1.121,0.988,2.34,0.988,3.657v2.57h-5.337
			c-5.668,0-10.692,1.27-15.074,3.806c-4.383,2.538-8.073,6.212-11.071,11.021c-3,4.811-5.273,10.709-6.82,17.693
			c-1.549,6.985-2.323,14.926-2.323,23.822H365.327z"/>
		<path display="inline" d="M412.771,94.104c0,9.358-1.416,16.952-4.25,22.784s-7.183,10.33-13.047,13.493h45.075
			c0,1.45-0.199,2.619-0.594,3.509s-0.924,1.581-1.582,2.076c-0.658,0.494-1.4,0.84-2.223,1.037
			c-0.826,0.198-1.666,0.297-2.521,0.297h-67.907c-1.648,0-2.982-0.213-4.003-0.643c-1.022-0.428-1.813-1.021-2.372-1.779
			c-0.561-0.757-0.939-1.646-1.137-2.669c-0.198-1.021-0.297-2.091-0.297-3.212v-19.572c0-7.577,0.955-14.101,2.867-19.571
			c1.911-5.469,4.794-9.949,8.649-13.443c3.855-3.492,8.731-6.079,14.629-7.76c5.897-1.68,12.865-2.521,20.905-2.521
			c1.646,0,2.982,0.215,4.004,0.643c1.021,0.429,1.813,1.022,2.373,1.779c0.559,0.758,0.938,1.648,1.137,2.669
			c0.197,1.022,0.295,2.093,0.295,3.212V94.104z M366.809,130.381c6.588,0,12.223-0.708,16.902-2.125
			c4.678-1.417,8.517-3.592,11.516-6.524c2.998-2.932,5.189-6.688,6.574-11.269c1.384-4.579,2.076-10.033,2.076-16.359V74.038
			c-6.591,0-12.225,0.66-16.903,1.977c-4.68,1.319-8.518,3.395-11.516,6.228c-3,2.834-5.189,6.491-6.573,10.972
			c-1.384,4.482-2.076,9.884-2.076,16.21V130.381z"/>
		<path display="inline" d="M443.512,137.3c-2.768,0-4.794-0.707-6.079-2.125c-1.285-1.416-1.928-3.707-1.928-6.87
			c0-1.779,0.181-3.492,0.544-5.14c0.361-1.646,0.873-3.229,1.532-4.745V69.096c0-0.526,0.197-0.988,0.593-1.384
			c0.396-0.395,0.855-0.593,1.384-0.593h4.942c0.527,0,0.988,0.198,1.384,0.593c0.396,0.396,0.594,0.857,0.594,1.384v32.323
			c2.107-4.745,4.513-9.243,7.216-13.493c2.701-4.25,5.535-7.99,8.5-11.219c2.966-3.228,5.964-5.798,8.995-7.71
			c3.03-1.911,5.897-2.867,8.6-2.867c1.713,0,3.146,0.232,4.3,0.692c1.152,0.462,2.076,1.087,2.768,1.878
			c0.692,0.791,1.17,1.729,1.434,2.817c0.263,1.087,0.396,2.258,0.396,3.509v55.354h31.631c0,1.45-0.198,2.619-0.593,3.509
			c-0.396,0.89-0.924,1.581-1.582,2.076c-0.659,0.494-1.4,0.84-2.224,1.037c-0.825,0.198-1.665,0.297-2.521,0.297h-27.678
			c-0.726,0-1.45-0.082-2.174-0.247c-0.727-0.164-1.369-0.46-1.928-0.89c-0.561-0.428-1.006-1.021-1.335-1.779
			c-0.33-0.757-0.494-1.762-0.494-3.015V74.038c-1.581,0-3.493,0.775-5.732,2.323c-2.241,1.549-4.597,3.657-7.068,6.326
			c-2.471,2.669-4.927,5.832-7.363,9.489c-2.439,3.658-4.631,7.611-6.573,11.862c-1.944,4.25-3.526,8.666-4.745,13.245
			c-1.22,4.581-1.828,9.178-1.828,13.789v6.228H443.512z"/>
		<path display="inline" d="M523.28,137.3c-2.768,0-4.794-0.707-6.079-2.125c-1.285-1.416-1.928-3.707-1.928-6.87
			c0-1.779,0.181-3.492,0.544-5.14c0.361-1.646,0.873-3.229,1.532-4.745V69.096c0-0.526,0.197-0.988,0.593-1.384
			c0.396-0.395,0.855-0.593,1.384-0.593h4.942c0.527,0,0.988,0.198,1.384,0.593c0.396,0.396,0.594,0.857,0.594,1.384v32.323
			c2.107-4.745,4.513-9.243,7.216-13.493c2.701-4.25,5.535-7.99,8.5-11.219c2.966-3.228,5.964-5.798,8.995-7.71
			c3.03-1.911,5.897-2.867,8.6-2.867c1.713,0,3.146,0.232,4.3,0.692c1.152,0.462,2.076,1.087,2.768,1.878
			c0.692,0.791,1.17,1.729,1.434,2.817c0.263,1.087,0.396,2.258,0.396,3.509v55.354h31.631c0,1.45-0.198,2.619-0.593,3.509
			c-0.396,0.89-0.924,1.581-1.582,2.076c-0.659,0.494-1.4,0.84-2.224,1.037c-0.825,0.198-1.665,0.297-2.521,0.297h-27.678
			c-0.726,0-1.45-0.082-2.174-0.247c-0.727-0.164-1.369-0.46-1.928-0.89c-0.561-0.428-1.006-1.021-1.335-1.779
			c-0.33-0.757-0.494-1.762-0.494-3.015V74.038c-1.581,0-3.493,0.775-5.732,2.323c-2.241,1.549-4.597,3.657-7.068,6.326
			c-2.471,2.669-4.927,5.832-7.363,9.489c-2.439,3.658-4.631,7.611-6.573,11.862c-1.944,4.25-3.526,8.666-4.745,13.245
			c-1.22,4.581-1.828,9.178-1.828,13.789v6.228H523.28z"/>
		<path display="inline" d="M668.583,130.381c0,1.45-0.197,2.619-0.593,3.509s-0.924,1.581-1.582,2.076
			c-0.659,0.494-1.4,0.84-2.224,1.037c-0.825,0.198-1.665,0.297-2.521,0.297h-56.343c-1.253,0-2.422-0.082-3.509-0.247
			c-1.088-0.164-2.026-0.526-2.817-1.087c-0.791-0.56-1.418-1.367-1.878-2.422c-0.462-1.054-0.692-2.438-0.692-4.151
			c0-1.449,0.214-3.08,0.643-4.894c0.428-1.812,1.07-3.673,1.928-5.585c0.855-1.91,1.91-3.82,3.163-5.732
			c1.251-1.911,2.733-3.723,4.448-5.437c-1.187,0-2.273-0.114-3.262-0.347c-0.988-0.229-1.846-0.625-2.57-1.186
			c-0.726-0.56-1.302-1.351-1.729-2.372c-0.43-1.021-0.643-2.355-0.643-4.004c0-2.372,0.544-4.859,1.631-7.463
			c1.087-2.602,2.635-5.155,4.646-7.661c2.01-2.503,4.432-4.875,7.266-7.117c2.832-2.239,5.995-4.216,9.489-5.931
			c3.492-1.713,7.265-3.064,11.317-4.053c4.053-0.989,8.318-1.483,12.801-1.483c2.239,0,3.689,0.561,4.35,1.681
			c0.657,1.121,0.988,2.34,0.988,3.657v2.57h-5.338c-6.919,0-12.85,0.956-17.792,2.867c-4.942,1.912-8.995,4.25-12.158,7.018
			s-5.503,5.651-7.019,8.649c-1.517,3-2.273,5.585-2.273,7.76h10.577c1.91-0.922,3.969-1.631,6.178-2.125
			c2.207-0.494,4.563-0.741,7.067-0.741c1.12,0,2.239,0.165,3.36,0.494c1.12,0.331,2.141,0.89,3.064,1.68
			c0.922,0.791,1.663,1.846,2.225,3.164c0.559,1.318,0.84,2.965,0.84,4.942h-19.967c-2.9,1.517-5.338,3.262-7.314,5.238
			c-1.978,1.978-3.559,4.004-4.745,6.079c-1.186,2.076-2.026,4.103-2.521,6.079s-0.741,3.724-0.741,5.239H668.583z"/>
		<path display="inline" d="M723.442,130.381c0,1.45-0.198,2.619-0.593,3.509c-0.396,0.89-0.924,1.581-1.582,2.076
			c-0.659,0.494-1.4,0.84-2.224,1.037c-0.825,0.198-1.665,0.297-2.521,0.297H667.1c-1.252,0-2.422-0.082-3.509-0.247
			c-1.087-0.164-2.026-0.526-2.817-1.087c-0.79-0.56-1.418-1.367-1.878-2.422c-0.462-1.054-0.691-2.438-0.691-4.151
			c0-11.664,1.284-21.532,3.854-29.605c2.57-8.071,5.931-14.595,10.082-19.571c4.152-4.975,8.862-8.566,14.136-10.774
			c5.271-2.207,10.641-3.312,16.111-3.312c2.24,0,3.69,0.561,4.35,1.681c0.658,1.121,0.988,2.34,0.988,3.657v2.57h-5.338
			c-5.668,0-10.692,1.27-15.074,3.806c-4.383,2.538-8.072,6.212-11.07,11.021c-2.999,4.811-5.272,10.709-6.82,17.693
			c-1.549,6.985-2.323,14.926-2.323,23.822H723.442z"/>
		<path display="inline" d="M728.187,130.381c6.589,0,12.025-0.576,16.31-1.73c4.283-1.151,7.661-2.898,10.132-5.238
			c2.471-2.339,4.201-5.288,5.189-8.847s1.482-7.775,1.482-12.652c0-2.438,0.626-4.036,1.878-4.794
			c1.251-0.757,2.635-1.137,4.152-1.137h2.866v5.931c0,7.116-0.988,12.948-2.966,17.495c-1.977,4.547-5.305,8.205-9.983,10.973
			h42.307c0,1.45-0.198,2.619-0.593,3.509c-0.396,0.89-0.924,1.581-1.582,2.076c-0.659,0.494-1.4,0.84-2.224,1.037
			c-0.825,0.198-1.665,0.297-2.521,0.297H727.1c-1.648,0-2.982-0.213-4.004-0.643c-1.022-0.428-1.813-1.021-2.372-1.779
			c-0.561-0.757-0.939-1.646-1.137-2.669c-0.197-1.021-0.297-2.091-0.297-3.212c0-5.996,0.594-11.696,1.779-17.101
			c1.187-5.402,2.817-10.395,4.894-14.976c2.075-4.579,4.529-8.73,7.363-12.455c2.833-3.722,5.897-6.87,9.193-9.439h-21.549
			c-2.241,0-3.691-0.559-4.35-1.681c-0.659-1.12-0.988-2.338-0.988-3.657v-2.57h38.649c3.03-1.054,6.16-1.582,9.39-1.582
			c1.054,0,2.092,0.148,3.114,0.445c1.021,0.296,1.96,0.808,2.817,1.532c0.855,0.726,1.547,1.698,2.075,2.916
			c0.526,1.22,0.791,2.752,0.791,4.597h-8.007c-5.668,0-10.741,1.45-15.222,4.349c-4.482,2.9-8.288,6.854-11.417,11.861
			c-3.131,5.009-5.521,10.873-7.167,17.595C729.01,115.554,728.187,122.737,728.187,130.381z"/>
	</g>
	<g display="none">
		<path display="inline" d="M32.377,110.077h-12.85c0-2.635,0.725-4.53,2.175-5.684c1.449-1.152,3.03-1.729,4.745-1.729h5.931
			c0-2.57,0.198-5.205,0.593-7.908c0.395-2.702,1.087-5.304,2.076-7.809c0.988-2.503,2.306-4.893,3.954-7.167
			c1.646-2.273,3.722-4.233,6.228-5.881c2.503-1.646,5.469-2.965,8.896-3.954c3.426-0.989,7.414-1.483,11.96-1.483
			c1.12,0,2.158,0.38,3.114,1.137c0.955,0.758,1.433,2.357,1.433,4.794v1.977h-5.14c-3.822,0-7.067,0.445-9.736,1.334
			c-2.668,0.89-4.893,2.076-6.672,3.559c-1.779,1.482-3.197,3.147-4.25,4.992c-1.055,1.846-1.846,3.741-2.372,5.684
			c-0.528,1.944-0.857,3.854-0.989,5.733c-0.133,1.878-0.198,3.543-0.198,4.992h47.15c0,1.449-0.198,2.652-0.593,3.607
			c-0.395,0.956-0.923,1.714-1.582,2.273c-0.659,0.561-1.401,0.956-2.224,1.186c-0.825,0.232-1.665,0.347-2.521,0.347h-40.23v29.555
			c0,5.601-0.494,10.345-1.482,14.233c-0.989,3.888-2.555,7.051-4.695,9.489c-2.142,2.438-4.877,4.201-8.204,5.289
			c-3.329,1.087-7.332,1.631-12.01,1.631c-2.108,0-3.559-0.528-4.35-1.582c-0.791-1.055-1.186-2.802-1.186-5.238v-1.088h5.536
			c2.965,0,5.551-0.215,7.759-0.643c2.207-0.429,4.019-1.433,5.437-3.015c1.417-1.581,2.487-3.889,3.212-6.919
			c0.725-3.032,1.087-7.151,1.087-12.355V110.077z"/>
		<path display="inline" d="M163.447,132.713c0,1.45-0.198,2.619-0.593,3.509s-0.924,1.581-1.582,2.076
			c-0.66,0.494-1.401,0.84-2.224,1.037c-0.825,0.198-1.665,0.297-2.521,0.297h-30.939c-0.726,0-1.45-0.082-2.174-0.247
			c-0.726-0.164-1.369-0.46-1.928-0.89c-0.561-0.428-1.005-1.021-1.334-1.779c-0.331-0.757-0.494-1.762-0.494-3.015v-23.624H89.609
			c-0.923,3.427-1.616,7.084-2.076,10.972c-0.462,3.889-0.692,8.105-0.692,12.652c0,2.505-0.544,4.119-1.631,4.844
			c-1.087,0.726-2.357,1.087-3.806,1.087h-3.46v-5.931c0-8.565,0.742-16.128,2.224-22.686c1.483-6.556,3.492-12.257,6.03-17.1
			c2.536-4.844,5.486-8.88,8.847-12.109c3.361-3.228,6.919-5.832,10.675-7.809c3.756-1.977,7.594-3.394,11.516-4.25
			c3.92-0.855,7.693-1.285,11.318-1.285c2.24,0,3.69,0.561,4.349,1.681c0.658,1.121,0.989,2.34,0.989,3.657v2.57h-5.338v56.343
			H163.447z M119.658,77.359c-5.799,1.319-11.105,4.037-15.914,8.155c-4.811,4.119-8.699,9.835-11.664,17.15h27.578V77.359z"/>
		<path display="inline" d="M197.548,102.664c1.251,0,2.422,0.082,3.509,0.246c1.087,0.166,2.026,0.528,2.817,1.088
			c0.791,0.561,1.416,1.368,1.878,2.422c0.46,1.055,0.692,2.438,0.692,4.151c0,4.086-1.038,8.105-3.114,12.059
			c-2.076,3.954-5.552,7.315-10.428,10.083h40.428c0,1.45-0.198,2.619-0.593,3.509c-0.395,0.89-0.923,1.581-1.582,2.076
			c-0.659,0.494-1.4,0.84-2.224,1.037c-0.825,0.198-1.665,0.297-2.521,0.297h-66.919c-0.726,0-1.451-0.082-2.175-0.247
			c-0.726-0.164-1.369-0.46-1.928-0.89c-0.561-0.428-1.005-1.021-1.334-1.779c-0.331-0.757-0.495-1.762-0.495-3.015v-0.988h6.228
			c5.469,0,10.213-0.361,14.234-1.088c4.019-0.724,7.414-1.68,10.181-2.866s5.024-2.553,6.771-4.103
			c1.745-1.547,3.114-3.163,4.102-4.843c0.988-1.681,1.646-3.361,1.977-5.041c0.329-1.681,0.494-3.245,0.494-4.695h-35.09
			c-1.253,0-2.422-0.114-3.509-0.347c-1.087-0.229-2.026-0.657-2.817-1.284c-0.791-0.626-1.418-1.483-1.878-2.57
			c-0.461-1.088-0.692-2.487-0.692-4.201c0-3.623,0.625-7.38,1.878-11.269c1.251-3.887,3.509-7.463,6.771-10.725
			c3.262-3.262,7.742-5.946,13.443-8.056c5.699-2.108,12.999-3.163,21.895-3.163c0.724,0,1.449,0.083,2.174,0.247
			c0.725,0.166,1.367,0.462,1.928,0.89c0.559,0.43,1.004,1.022,1.334,1.779c0.329,0.758,0.494,1.764,0.494,3.015v1.977h-7.216
			c-5.337,0-9.869,0.445-13.591,1.334c-3.724,0.89-6.837,2.076-9.341,3.559c-2.505,1.482-4.482,3.147-5.931,4.992
			c-1.451,1.846-2.538,3.741-3.262,5.684c-0.726,1.944-1.186,3.854-1.384,5.733c-0.198,1.878-0.296,3.543-0.296,4.992H197.548z"/>
		<path display="inline" d="M238.074,132.713c6.589,0,12.025-0.576,16.31-1.73c4.283-1.151,7.661-2.898,10.132-5.238
			c2.471-2.339,4.201-5.288,5.189-8.847s1.482-7.775,1.482-12.652c0-2.438,0.626-4.036,1.878-4.794
			c1.251-0.758,2.635-1.137,4.151-1.137h2.867v5.931c0,7.116-0.989,12.948-2.965,17.495c-1.977,4.547-5.305,8.205-9.983,10.973
			h42.306c0,1.45-0.198,2.619-0.593,3.509s-0.924,1.581-1.582,2.076c-0.66,0.494-1.401,0.84-2.224,1.037
			c-0.825,0.198-1.665,0.297-2.521,0.297h-65.535c-1.648,0-2.982-0.213-4.003-0.643c-1.022-0.428-1.813-1.021-2.373-1.779
			c-0.561-0.757-0.939-1.646-1.137-2.669c-0.198-1.021-0.296-2.091-0.296-3.212c0-5.996,0.593-11.696,1.779-17.101
			c1.186-5.402,2.817-10.395,4.893-14.976c2.076-4.579,4.53-8.73,7.364-12.455c2.833-3.722,5.896-6.87,9.192-9.439h-21.548
			c-2.241,0-3.691-0.559-4.349-1.681c-0.66-1.12-0.988-2.338-0.988-3.657v-2.57h38.648c3.03-1.054,6.161-1.582,9.391-1.582
			c1.053,0,2.091,0.148,3.114,0.445c1.021,0.296,1.96,0.808,2.817,1.532c0.856,0.726,1.548,1.698,2.076,2.916
			c0.527,1.22,0.791,2.752,0.791,4.597h-8.007c-5.668,0-10.742,1.45-15.222,4.349c-4.482,2.9-8.288,6.854-11.417,11.861
			c-3.131,5.009-5.52,10.873-7.167,17.595C238.897,117.886,238.074,125.069,238.074,132.713z"/>
		<path display="inline" d="M364.3,132.713c0,1.45-0.198,2.619-0.593,3.509s-0.923,1.581-1.582,2.076
			c-0.66,0.494-1.401,0.84-2.224,1.037c-0.825,0.198-1.665,0.297-2.521,0.297h-49.423c-1.252,0-2.421-0.082-3.509-0.247
			c-1.087-0.164-2.026-0.526-2.817-1.087c-0.791-0.56-1.418-1.367-1.878-2.422c-0.462-1.054-0.692-2.438-0.692-4.151
			c0-11.664,1.285-21.532,3.855-29.605c2.57-8.07,5.931-14.595,10.083-19.571c4.151-4.975,8.862-8.566,14.135-10.774
			c5.271-2.207,10.642-3.312,16.112-3.312c2.239,0,3.689,0.561,4.349,1.681c0.658,1.121,0.988,2.34,0.988,3.657v2.57h-5.337
			c-5.668,0-10.692,1.27-15.074,3.806c-4.383,2.538-8.073,6.212-11.071,11.021c-3,4.811-5.273,10.709-6.82,17.693
			c-1.549,6.985-2.323,14.926-2.323,23.822H364.3z"/>
		<path display="inline" d="M411.744,96.436c0,9.358-1.416,16.952-4.25,22.784s-7.183,10.33-13.047,13.493h45.075
			c0,1.45-0.199,2.619-0.594,3.509s-0.924,1.581-1.582,2.076c-0.658,0.494-1.4,0.84-2.223,1.037
			c-0.826,0.198-1.666,0.297-2.521,0.297h-67.907c-1.648,0-2.982-0.213-4.003-0.643c-1.022-0.428-1.813-1.021-2.372-1.779
			c-0.561-0.757-0.939-1.646-1.137-2.669c-0.198-1.021-0.297-2.091-0.297-3.212v-19.572c0-7.577,0.955-14.101,2.867-19.571
			c1.911-5.469,4.794-9.949,8.649-13.443c3.855-3.492,8.731-6.079,14.629-7.76c5.897-1.68,12.865-2.521,20.905-2.521
			c1.646,0,2.982,0.215,4.004,0.643c1.021,0.429,1.813,1.022,2.373,1.779c0.559,0.758,0.938,1.648,1.137,2.669
			c0.197,1.022,0.295,2.093,0.295,3.212V96.436z M365.782,132.713c6.588,0,12.223-0.708,16.902-2.125
			c4.678-1.417,8.517-3.592,11.516-6.524c2.998-2.932,5.189-6.688,6.574-11.269c1.384-4.579,2.076-10.033,2.076-16.359V76.37
			c-6.591,0-12.225,0.66-16.903,1.977c-4.68,1.319-8.518,3.395-11.516,6.228c-3,2.834-5.189,6.491-6.573,10.972
			c-1.384,4.481-2.076,9.884-2.076,16.21V132.713z"/>
		<path display="inline" d="M442.484,139.632c-2.768,0-4.794-0.707-6.079-2.125c-1.285-1.416-1.928-3.707-1.928-6.87
			c0-1.779,0.181-3.492,0.544-5.14c0.361-1.646,0.873-3.229,1.532-4.745V71.428c0-0.526,0.197-0.988,0.593-1.384
			c0.396-0.395,0.855-0.593,1.384-0.593h4.942c0.527,0,0.988,0.198,1.384,0.593c0.396,0.396,0.594,0.857,0.594,1.384v32.323
			c2.107-4.745,4.513-9.243,7.216-13.493c2.701-4.25,5.535-7.99,8.5-11.219c2.966-3.228,5.964-5.798,8.995-7.71
			c3.03-1.911,5.897-2.867,8.6-2.867c1.713,0,3.146,0.232,4.3,0.692c1.152,0.462,2.076,1.087,2.768,1.878
			c0.692,0.791,1.17,1.729,1.434,2.817c0.263,1.087,0.396,2.258,0.396,3.509v55.354h31.631c0,1.45-0.198,2.619-0.593,3.509
			c-0.396,0.89-0.924,1.581-1.582,2.076c-0.659,0.494-1.4,0.84-2.224,1.037c-0.825,0.198-1.665,0.297-2.521,0.297h-27.678
			c-0.726,0-1.45-0.082-2.174-0.247c-0.727-0.164-1.369-0.46-1.928-0.89c-0.561-0.428-1.006-1.021-1.335-1.779
			c-0.33-0.757-0.494-1.762-0.494-3.015V76.37c-1.581,0-3.493,0.775-5.732,2.323c-2.241,1.549-4.597,3.657-7.068,6.326
			c-2.471,2.669-4.927,5.832-7.363,9.489c-2.439,3.658-4.631,7.611-6.573,11.862c-1.944,4.25-3.526,8.666-4.745,13.245
			c-1.22,4.581-1.828,9.178-1.828,13.789v6.228H442.484z"/>
		<path display="inline" d="M522.253,139.632c-2.768,0-4.794-0.707-6.079-2.125c-1.285-1.416-1.928-3.707-1.928-6.87
			c0-1.779,0.181-3.492,0.544-5.14c0.361-1.646,0.873-3.229,1.532-4.745V71.428c0-0.526,0.197-0.988,0.593-1.384
			c0.396-0.395,0.855-0.593,1.384-0.593h4.942c0.527,0,0.988,0.198,1.384,0.593c0.396,0.396,0.594,0.857,0.594,1.384v32.323
			c2.107-4.745,4.513-9.243,7.216-13.493c2.701-4.25,5.535-7.99,8.5-11.219c2.966-3.228,5.964-5.798,8.995-7.71
			c3.03-1.911,5.897-2.867,8.6-2.867c1.713,0,3.146,0.232,4.3,0.692c1.152,0.462,2.076,1.087,2.768,1.878
			c0.692,0.791,1.17,1.729,1.434,2.817c0.263,1.087,0.396,2.258,0.396,3.509v55.354h31.631c0,1.45-0.198,2.619-0.593,3.509
			c-0.396,0.89-0.924,1.581-1.582,2.076c-0.659,0.494-1.4,0.84-2.224,1.037c-0.825,0.198-1.665,0.297-2.521,0.297H564.46
			c-0.726,0-1.45-0.082-2.174-0.247c-0.727-0.164-1.369-0.46-1.928-0.89c-0.561-0.428-1.006-1.021-1.335-1.779
			c-0.33-0.757-0.494-1.762-0.494-3.015V76.37c-1.581,0-3.493,0.775-5.732,2.323c-2.241,1.549-4.597,3.657-7.068,6.326
			c-2.471,2.669-4.927,5.832-7.363,9.489c-2.439,3.658-4.631,7.611-6.573,11.862c-1.944,4.25-3.526,8.666-4.745,13.245
			c-1.22,4.581-1.828,9.178-1.828,13.789v6.228H522.253z"/>
		<path display="inline" d="M667.556,132.713c0,1.45-0.197,2.619-0.593,3.509s-0.924,1.581-1.582,2.076
			c-0.659,0.494-1.4,0.84-2.224,1.037c-0.825,0.198-1.665,0.297-2.521,0.297h-56.343c-1.253,0-2.422-0.082-3.509-0.247
			c-1.088-0.164-2.026-0.526-2.817-1.087c-0.791-0.56-1.418-1.367-1.878-2.422c-0.462-1.054-0.692-2.438-0.692-4.151
			c0-1.449,0.214-3.08,0.643-4.894c0.428-1.812,1.07-3.673,1.928-5.585c0.855-1.91,1.91-3.82,3.163-5.732
			c1.251-1.911,2.733-3.723,4.448-5.437c-1.187,0-2.273-0.114-3.262-0.347c-0.988-0.229-1.846-0.625-2.57-1.186
			c-0.726-0.56-1.302-1.351-1.729-2.372c-0.43-1.021-0.643-2.355-0.643-4.004c0-2.372,0.544-4.858,1.631-7.463
			c1.087-2.602,2.635-5.155,4.646-7.661c2.01-2.503,4.432-4.875,7.266-7.117c2.832-2.239,5.995-4.216,9.489-5.931
			c3.492-1.713,7.265-3.064,11.317-4.053c4.053-0.989,8.318-1.483,12.801-1.483c2.239,0,3.689,0.561,4.35,1.681
			c0.657,1.121,0.988,2.34,0.988,3.657v2.57h-5.338c-6.919,0-12.85,0.956-17.792,2.867c-4.942,1.912-8.995,4.25-12.158,7.018
			s-5.503,5.651-7.019,8.649c-1.517,2.999-2.273,5.584-2.273,7.76h10.577c1.91-0.923,3.969-1.632,6.178-2.126
			c2.207-0.494,4.563-0.741,7.067-0.741c1.12,0,2.239,0.165,3.36,0.494c1.12,0.33,2.141,0.89,3.064,1.68
			c0.922,0.791,1.663,1.847,2.225,3.164c0.559,1.318,0.84,2.965,0.84,4.942h-19.967c-2.9,1.517-5.338,3.262-7.314,5.238
			c-1.978,1.978-3.559,4.004-4.745,6.079c-1.186,2.076-2.026,4.103-2.521,6.079s-0.741,3.724-0.741,5.239H667.556z"/>
		<path display="inline" d="M722.415,132.713c0,1.45-0.198,2.619-0.593,3.509c-0.396,0.89-0.924,1.581-1.582,2.076
			c-0.659,0.494-1.4,0.84-2.224,1.037c-0.825,0.198-1.665,0.297-2.521,0.297h-49.424c-1.252,0-2.422-0.082-3.509-0.247
			c-1.087-0.164-2.026-0.526-2.817-1.087c-0.79-0.56-1.418-1.367-1.878-2.422c-0.462-1.054-0.691-2.438-0.691-4.151
			c0-11.664,1.284-21.532,3.854-29.605c2.57-8.07,5.931-14.595,10.082-19.571c4.152-4.975,8.862-8.566,14.136-10.774
			c5.271-2.207,10.641-3.312,16.111-3.312c2.24,0,3.69,0.561,4.35,1.681c0.658,1.121,0.988,2.34,0.988,3.657v2.57h-5.338
			c-5.668,0-10.692,1.27-15.074,3.806c-4.383,2.538-8.072,6.212-11.07,11.021c-2.999,4.811-5.272,10.709-6.82,17.693
			c-1.549,6.985-2.323,14.926-2.323,23.822H722.415z"/>
		<path display="inline" d="M727.159,132.713c6.589,0,12.025-0.576,16.31-1.73c4.283-1.151,7.661-2.898,10.132-5.238
			c2.471-2.339,4.201-5.288,5.189-8.847s1.482-7.775,1.482-12.652c0-2.438,0.626-4.036,1.878-4.794
			c1.251-0.758,2.635-1.137,4.152-1.137h2.866v5.931c0,7.116-0.988,12.948-2.966,17.495c-1.977,4.547-5.305,8.205-9.983,10.973
			h42.307c0,1.45-0.198,2.619-0.593,3.509c-0.396,0.89-0.924,1.581-1.582,2.076c-0.659,0.494-1.4,0.84-2.224,1.037
			c-0.825,0.198-1.665,0.297-2.521,0.297h-65.535c-1.648,0-2.982-0.213-4.004-0.643c-1.022-0.428-1.813-1.021-2.372-1.779
			c-0.561-0.757-0.939-1.646-1.137-2.669c-0.197-1.021-0.297-2.091-0.297-3.212c0-5.996,0.594-11.696,1.779-17.101
			c1.187-5.402,2.817-10.395,4.894-14.976c2.075-4.579,4.529-8.73,7.363-12.455c2.833-3.722,5.897-6.87,9.193-9.439h-21.549
			c-2.241,0-3.691-0.559-4.35-1.681c-0.659-1.12-0.988-2.338-0.988-3.657v-2.57h38.649c3.03-1.054,6.16-1.582,9.39-1.582
			c1.054,0,2.092,0.148,3.114,0.445c1.021,0.296,1.96,0.808,2.817,1.532c0.855,0.726,1.547,1.698,2.075,2.916
			c0.526,1.22,0.791,2.752,0.791,4.597h-8.007c-5.668,0-10.741,1.45-15.222,4.349c-4.482,2.9-8.288,6.854-11.417,11.861
			c-3.131,5.009-5.521,10.873-7.167,17.595C727.982,117.886,727.159,125.069,727.159,132.713z"/>
	</g>
	<rect display="none" fill="none" width="799.554" height="200"/>
	<path display="none" fill="none" stroke="#000000" stroke-width="7" stroke-miterlimit="10" d="M71.658,68.062
		c0,0-36.158-3.239-34.158,48.975c0,0,8.5,53.964-25.94,47.324"/>
	<path display="none" fill="none" stroke="#000000" stroke-width="7" stroke-miterlimit="10" d="M202.678,67.267
		C150.855,62.034,159.5,104,159.5,104H202v12.475C197,136.449,171.5,134,171.5,134h-44l0.224-64.978
		C86.451,73,87.276,104.136,87.276,104.136H21.194"/>
	<path display="none" fill="none" stroke="#000000" stroke-width="7" stroke-miterlimit="10" d="M82.432,137.3
		c0,0,2.669-25.206,4.844-31.087c2.175-5.881,40.32-3,40.32-3"/>
	<path display="none" fill="none" stroke="#000000" stroke-width="7" stroke-miterlimit="10" d="M226.548,69.689L275,70
		c-46.5,7.5-41.235,63.89-41.235,63.89l-53.736-0.196"/>
	<path display="none" fill="none" stroke="#000000" stroke-width="7" stroke-miterlimit="10" d="M234,133.095
		c0,0,17,4.205,33.844-6.588"/>
	<path display="none" fill="none" stroke="#000000" stroke-width="7" stroke-miterlimit="10" d="M278.244,95.982"/>
	<g display="none">
		<path display="inline" d="M253.874,98.505c0,2.018-0.137,3.859-0.407,5.526c-0.273,1.669-0.796,3.123-1.571,4.363
			c-0.776,1.241-1.881,2.21-3.316,2.908c-1.436,0.697-3.315,1.047-5.643,1.047V94.2c-5.197,0-9.676,0.543-13.438,1.629
			c-3.763,1.087-6.864,2.89-9.308,5.409c-2.443,2.521-4.247,5.857-5.41,10.006c-1.164,4.15-1.745,9.328-1.745,15.532
			c0,3.414,0.134,6.128,0.407,8.144c0.271,2.019,0.949,3.549,2.036,4.596c1.085,1.047,2.734,1.707,4.945,1.979
			c2.21,0.272,5.253,0.407,9.133,0.407h50.726c0,1.706-0.232,3.083-0.698,4.13c-0.466,1.047-1.087,1.861-1.862,2.443
			c-0.776,0.581-1.649,0.988-2.618,1.222c-0.971,0.232-1.959,0.349-2.967,0.349h-42.582c-6.361,0-11.343-0.329-14.95-0.989
			c-3.606-0.658-6.322-1.861-8.144-3.606c-1.823-1.745-2.948-4.11-3.374-7.097c-0.427-2.985-0.64-6.845-0.64-11.576
			c0-14.116,3.218-24.625,9.656-31.529c6.437-6.902,15.861-10.354,28.271-10.354c2.792,0,5.061,0.331,6.806,0.989
			c1.745,0.66,3.121,1.61,4.13,2.85c1.007,1.242,1.687,2.696,2.036,4.363C253.699,94.764,253.874,96.567,253.874,98.505z"/>
		<path display="inline" d="M336.127,99.203c0,11.014-1.669,19.953-5.003,26.816c-3.336,6.865-8.455,12.158-15.357,15.882h53.053
			c0,1.706-0.233,3.083-0.698,4.13s-1.087,1.861-1.861,2.443c-0.776,0.581-1.649,0.988-2.618,1.222
			c-0.971,0.232-1.96,0.349-2.967,0.349h-79.928c-1.94,0-3.511-0.251-4.712-0.756c-1.204-0.504-2.134-1.202-2.792-2.095
			c-0.66-0.891-1.105-1.938-1.338-3.141c-0.233-1.202-0.349-2.462-0.349-3.781v-23.036c0-8.918,1.124-16.598,3.374-23.036
			c2.249-6.437,5.643-11.71,10.18-15.823c4.537-4.11,10.276-7.155,17.219-9.133c6.94-1.978,15.143-2.967,24.606-2.967
			c1.938,0,3.508,0.252,4.712,0.756c1.202,0.505,2.132,1.203,2.792,2.094c0.658,0.893,1.105,1.939,1.338,3.141
			c0.232,1.204,0.349,2.463,0.349,3.781V99.203z M282.027,141.901c7.755,0,14.386-0.833,19.895-2.502
			c5.506-1.667,10.023-4.227,13.554-7.679c3.529-3.45,6.108-7.871,7.737-13.264c1.629-5.389,2.443-11.809,2.443-19.254V75.585
			c-7.757,0-14.388,0.776-19.895,2.327c-5.508,1.552-10.025,3.996-13.554,7.33c-3.53,3.336-6.108,7.641-7.737,12.914
			c-1.629,5.276-2.443,11.634-2.443,19.081V141.901z"/>
		<path display="inline" d="M372.308,150.045c-3.258,0-5.643-0.833-7.155-2.501c-1.513-1.667-2.269-4.363-2.269-8.086
			c0-2.095,0.212-4.11,0.64-6.05c0.425-1.938,1.027-3.8,1.803-5.585V69.768c0-0.62,0.233-1.164,0.698-1.629s1.007-0.698,1.629-0.698
			h5.817c0.62,0,1.164,0.232,1.629,0.698s0.698,1.009,0.698,1.629v38.044c2.481-5.584,5.312-10.878,8.493-15.881
			c3.179-5.003,6.515-9.404,10.005-13.205c3.49-3.799,7.02-6.824,10.588-9.075c3.566-2.249,6.939-3.374,10.121-3.374
			c2.016,0,3.703,0.272,5.061,0.814c1.357,0.543,2.443,1.28,3.258,2.21s1.377,2.036,1.688,3.316c0.309,1.28,0.465,2.658,0.465,4.13
			v65.153h37.23c0,1.706-0.232,3.083-0.699,4.13c-0.465,1.047-1.086,1.861-1.861,2.443c-0.775,0.581-1.648,0.988-2.617,1.222
			c-0.971,0.232-1.959,0.349-2.967,0.349h-32.576c-0.854,0-1.707-0.097-2.559-0.291c-0.855-0.192-1.611-0.542-2.27-1.047
			c-0.66-0.504-1.184-1.202-1.57-2.094c-0.389-0.892-0.582-2.074-0.582-3.549V75.585c-1.861,0-4.111,0.913-6.748,2.734
			c-2.637,1.823-5.41,4.305-8.318,7.446c-2.908,3.142-5.799,6.864-8.668,11.169c-2.87,4.304-5.45,8.958-7.736,13.961
			c-2.289,5.003-4.15,10.2-5.584,15.59c-1.436,5.392-2.152,10.802-2.152,16.229v7.33H372.308z"/>
		<path display="inline" d="M466.196,150.045c-3.258,0-5.643-0.833-7.155-2.501c-1.513-1.667-2.269-4.363-2.269-8.086
			c0-2.095,0.213-4.11,0.64-6.05c0.426-1.938,1.027-3.8,1.804-5.585V69.768c0-0.62,0.232-1.164,0.697-1.629
			c0.466-0.465,1.008-0.698,1.629-0.698h5.817c0.62,0,1.164,0.232,1.629,0.698c0.466,0.465,0.698,1.009,0.698,1.629v38.044
			c2.481-5.584,5.312-10.878,8.493-15.881c3.179-5.003,6.515-9.404,10.005-13.205c3.49-3.799,7.02-6.824,10.588-9.075
			c3.566-2.249,6.94-3.374,10.122-3.374c2.016,0,3.702,0.272,5.061,0.814c1.356,0.543,2.443,1.28,3.258,2.21
			s1.376,2.036,1.687,3.316c0.31,1.28,0.466,2.658,0.466,4.13v65.153h37.229c0,1.706-0.232,3.083-0.698,4.13
			c-0.465,1.047-1.087,1.861-1.861,2.443c-0.776,0.581-1.648,0.988-2.617,1.222c-0.972,0.232-1.96,0.349-2.967,0.349h-32.576
			c-0.854,0-1.707-0.097-2.56-0.291c-0.854-0.192-1.611-0.542-2.269-1.047c-0.66-0.504-1.184-1.202-1.571-2.094
			c-0.389-0.892-0.581-2.074-0.581-3.549V75.585c-1.862,0-4.112,0.913-6.748,2.734c-2.638,1.823-5.41,4.305-8.319,7.446
			c-2.908,3.142-5.799,6.864-8.667,11.169c-2.87,4.304-5.45,8.958-7.737,13.961c-2.288,5.003-4.149,10.2-5.584,15.59
			c-1.437,5.392-2.152,10.802-2.152,16.229v7.33H466.196z"/>
		<path display="inline" d="M637.22,141.901c0,1.706-0.233,3.083-0.698,4.13c-0.466,1.047-1.087,1.861-1.861,2.443
			c-0.776,0.581-1.649,0.988-2.618,1.222c-0.971,0.232-1.96,0.349-2.967,0.349H562.76c-1.475,0-2.851-0.097-4.13-0.291
			c-1.28-0.192-2.386-0.62-3.316-1.279c-0.931-0.658-1.669-1.609-2.21-2.851c-0.544-1.24-0.814-2.869-0.814-4.887
			c0-1.705,0.251-3.625,0.756-5.759c0.504-2.133,1.26-4.323,2.269-6.573c1.008-2.249,2.249-4.497,3.724-6.748
			c1.472-2.249,3.217-4.381,5.235-6.399c-1.396,0-2.676-0.134-3.84-0.406c-1.163-0.271-2.172-0.736-3.024-1.396
			c-0.854-0.658-1.533-1.589-2.036-2.793c-0.506-1.201-0.757-2.771-0.757-4.711c0-2.793,0.641-5.719,1.92-8.784
			c1.28-3.063,3.102-6.068,5.469-9.017c2.364-2.947,5.215-5.739,8.551-8.377c3.334-2.636,7.057-4.962,11.169-6.98
			c4.11-2.016,8.551-3.606,13.321-4.77s9.791-1.745,15.066-1.745c2.636,0,4.343,0.66,5.119,1.978
			c0.774,1.319,1.163,2.754,1.163,4.305v3.025h-6.282c-8.144,0-15.125,1.125-20.941,3.374c-5.817,2.251-10.588,5.003-14.311,8.261
			c-3.723,3.257-6.477,6.651-8.261,10.18c-1.785,3.53-2.676,6.573-2.676,9.134h12.449c2.248-1.086,4.672-1.92,7.271-2.502
			c2.598-0.582,5.37-0.873,8.318-0.873c1.317,0,2.636,0.195,3.956,0.582c1.317,0.389,2.52,1.047,3.606,1.979
			c1.085,0.93,1.958,2.172,2.617,3.723c0.658,1.553,0.989,3.49,0.989,5.816H579.63c-3.414,1.785-6.283,3.84-8.609,6.166
			c-2.327,2.328-4.188,4.713-5.585,7.156c-1.396,2.442-2.385,4.828-2.967,7.154c-0.582,2.327-0.872,4.383-0.872,6.167H637.22z"/>
		<path display="inline" d="M701.789,141.901c0,1.706-0.232,3.083-0.698,4.13c-0.465,1.047-1.087,1.861-1.861,2.443
			c-0.776,0.581-1.648,0.988-2.618,1.222c-0.971,0.232-1.959,0.349-2.967,0.349h-58.171c-1.475,0-2.851-0.097-4.131-0.291
			c-1.279-0.192-2.385-0.62-3.315-1.279c-0.931-0.658-1.669-1.609-2.211-2.851c-0.543-1.24-0.813-2.869-0.813-4.887
			c0-13.729,1.512-25.343,4.537-34.845c3.024-9.5,6.98-17.179,11.867-23.036c4.886-5.855,10.431-10.082,16.637-12.682
			c6.204-2.598,12.525-3.897,18.964-3.897c2.636,0,4.343,0.66,5.119,1.978c0.774,1.319,1.163,2.754,1.163,4.305v3.025h-6.282
			c-6.672,0-12.585,1.494-17.742,4.479c-5.159,2.987-9.502,7.312-13.03,12.972c-3.53,5.663-6.206,12.605-8.028,20.826
			c-1.823,8.222-2.733,17.567-2.733,28.039H701.789z"/>
		<path display="inline" d="M707.372,141.901c7.755,0,14.154-0.679,19.197-2.036c5.041-1.356,9.017-3.412,11.925-6.167
			c2.908-2.752,4.944-6.224,6.108-10.412c1.163-4.188,1.745-9.151,1.745-14.892c0-2.869,0.736-4.75,2.21-5.643
			c1.473-0.891,3.102-1.338,4.887-1.338h3.374v6.98c0,8.377-1.164,15.24-3.49,20.592c-2.327,5.353-6.244,9.657-11.751,12.915h49.795
			c0,1.706-0.232,3.083-0.698,4.13c-0.465,1.047-1.087,1.861-1.861,2.443c-0.776,0.581-1.648,0.988-2.617,1.222
			c-0.972,0.232-1.96,0.349-2.967,0.349h-77.136c-1.939,0-3.511-0.251-4.712-0.756c-1.204-0.504-2.135-1.202-2.792-2.095
			c-0.66-0.891-1.105-1.938-1.339-3.141c-0.232-1.202-0.349-2.462-0.349-3.781c0-7.058,0.698-13.767,2.094-20.128
			c1.396-6.359,3.316-12.234,5.76-17.626c2.443-5.39,5.331-10.276,8.667-14.659c3.334-4.381,6.94-8.086,10.82-11.111h-25.363
			c-2.638,0-4.345-0.658-5.119-1.978c-0.775-1.318-1.163-2.752-1.163-4.305v-3.025h45.49c3.566-1.24,7.251-1.862,11.053-1.862
			c1.239,0,2.461,0.175,3.665,0.524c1.201,0.349,2.307,0.951,3.315,1.803c1.007,0.854,1.821,1.998,2.443,3.432
			c0.62,1.436,0.931,3.239,0.931,5.41h-9.424c-6.672,0-12.644,1.707-17.917,5.119c-5.275,3.414-9.755,8.068-13.438,13.961
			c-3.685,5.896-6.497,12.798-8.435,20.709C708.341,124.449,707.372,132.904,707.372,141.901z"/>
	</g>
	<g>
		<path fill="#025583" d="M31.98,102.619H19.241c0-2.612,0.718-4.491,2.156-5.635c1.436-1.143,3.004-1.715,4.704-1.715h5.879
			c0-2.548,0.196-5.16,0.588-7.84c0.392-2.678,1.078-5.258,2.058-7.741c0.98-2.482,2.286-4.851,3.92-7.104
			c1.632-2.254,3.69-4.197,6.173-5.831c2.482-1.632,5.422-2.94,8.819-3.92c3.396-0.98,7.35-1.47,11.857-1.47
			c1.11,0,2.139,0.376,3.087,1.127c0.946,0.751,1.421,2.336,1.421,4.752v1.96h-5.096c-3.79,0-7.007,0.441-9.652,1.323
			c-2.646,0.882-4.851,2.058-6.615,3.528s-3.169,3.121-4.214,4.949c-1.045,1.83-1.83,3.708-2.352,5.635
			c-0.524,1.928-0.85,3.822-0.98,5.684c-0.132,1.862-0.196,3.512-0.196,4.949h46.743c0,1.438-0.196,2.63-0.588,3.577
			c-0.392,0.948-0.916,1.7-1.568,2.253c-0.654,0.557-1.389,0.948-2.205,1.177c-0.817,0.229-1.65,0.343-2.499,0.343H40.799v29.3
			c0,5.552-0.49,10.256-1.47,14.111c-0.98,3.854-2.533,6.989-4.655,9.407c-2.124,2.416-4.835,4.165-8.133,5.242
			c-3.3,1.078-7.269,1.617-11.906,1.617c-2.09,0-3.528-0.523-4.312-1.567c-0.784-1.046-1.176-2.778-1.176-5.194v-1.078h5.488
			c2.94,0,5.503-0.212,7.692-0.637c2.188-0.426,3.984-1.421,5.39-2.988c1.404-1.568,2.465-3.855,3.185-6.86
			c0.718-3.005,1.078-7.089,1.078-12.249V102.619z"/>
		<path fill="#025583" d="M161.919,125.06c0,1.438-0.196,2.597-0.588,3.479c-0.392,0.882-0.916,1.568-1.568,2.058
			c-0.654,0.49-1.389,0.833-2.205,1.029c-0.818,0.196-1.651,0.294-2.499,0.294h-30.672c-0.72,0-1.438-0.081-2.156-0.245
			c-0.72-0.162-1.357-0.456-1.911-0.882c-0.556-0.424-0.997-1.012-1.323-1.764c-0.328-0.75-0.49-1.747-0.49-2.989v-23.42h-29.79
			c-0.916,3.397-1.602,7.023-2.058,10.877c-0.458,3.855-0.686,8.035-0.686,12.543c0,2.483-0.539,4.084-1.617,4.802
			c-1.078,0.72-2.337,1.078-3.773,1.078h-3.43v-5.88c0-8.491,0.735-15.988,2.205-22.489c1.47-6.5,3.462-12.151,5.978-16.953
			c2.514-4.801,5.438-8.802,8.77-12.004c3.332-3.2,6.86-5.782,10.583-7.742s7.529-3.364,11.416-4.213
			c3.886-0.849,7.627-1.274,11.221-1.274c2.22,0,3.658,0.556,4.312,1.666c0.652,1.112,0.98,2.32,0.98,3.626v2.548h-5.292v55.856
			H161.919z M118.508,70.183c-5.75,1.308-11.009,4.002-15.777,8.084c-4.77,4.083-8.624,9.75-11.563,17.002h27.34V70.183z"/>
		<path fill="#025583" d="M195.727,95.27c1.24,0,2.401,0.083,3.479,0.245c1.078,0.164,2.009,0.524,2.793,1.078
			c0.784,0.556,1.404,1.356,1.862,2.401c0.456,1.046,0.686,2.417,0.686,4.115c0,4.052-1.029,8.036-3.087,11.956
			c-2.058,3.919-5.504,7.251-10.338,9.995h40.08c0,1.438-0.196,2.597-0.588,3.479c-0.392,0.882-0.916,1.568-1.568,2.058
			c-0.653,0.49-1.389,0.833-2.205,1.029c-0.818,0.196-1.65,0.294-2.499,0.294h-66.341c-0.72,0-1.438-0.081-2.156-0.245
			c-0.719-0.162-1.356-0.456-1.911-0.882c-0.556-0.424-0.997-1.012-1.323-1.764c-0.328-0.75-0.49-1.747-0.49-2.989v-0.979h6.174
			c5.422,0,10.125-0.358,14.111-1.078c3.984-0.718,7.35-1.666,10.093-2.842c2.744-1.176,4.981-2.531,6.713-4.066
			c1.73-1.534,3.086-3.136,4.066-4.802s1.632-3.332,1.96-4.998c0.326-1.666,0.49-3.217,0.49-4.654h-34.788
			c-1.242,0-2.401-0.113-3.479-0.343c-1.078-0.229-2.009-0.653-2.793-1.274c-0.784-0.62-1.406-1.47-1.862-2.548
			c-0.458-1.078-0.686-2.465-0.686-4.165c0-3.592,0.62-7.316,1.862-11.171c1.24-3.854,3.479-7.398,6.713-10.632
			c3.233-3.234,7.675-5.895,13.327-7.986c5.65-2.09,12.886-3.136,21.706-3.136c0.718,0,1.436,0.083,2.156,0.245
			c0.718,0.164,1.355,0.458,1.911,0.882c0.554,0.425,0.996,1.013,1.323,1.764c0.326,0.752,0.49,1.749,0.49,2.989v1.96h-7.153
			c-5.292,0-9.784,0.441-13.474,1.323c-3.692,0.882-6.779,2.058-9.261,3.528c-2.483,1.47-4.443,3.121-5.879,4.949
			c-1.438,1.83-2.516,3.708-3.234,5.635c-0.72,1.928-1.176,3.822-1.372,5.684c-0.196,1.862-0.294,3.512-0.294,4.949H195.727z"/>
		<path fill="#025583" d="M235.902,125.06c6.532,0,11.922-0.571,16.169-1.715c4.246-1.143,7.595-2.874,10.044-5.194
			c2.45-2.317,4.165-5.242,5.145-8.77c0.979-3.528,1.47-7.708,1.47-12.543c0-2.417,0.62-4.001,1.862-4.753
			c1.24-0.75,2.612-1.127,4.116-1.127h2.842v5.88c0,7.055-0.98,12.837-2.94,17.344c-1.96,4.508-5.259,8.134-9.897,10.878h41.941
			c0,1.438-0.196,2.597-0.588,3.479s-0.916,1.568-1.568,2.058c-0.654,0.49-1.389,0.833-2.205,1.029
			c-0.817,0.196-1.65,0.294-2.499,0.294h-64.97c-1.634,0-2.957-0.211-3.969-0.637c-1.014-0.425-1.798-1.013-2.352-1.764
			c-0.556-0.751-0.931-1.633-1.127-2.646c-0.196-1.012-0.294-2.073-0.294-3.185c0-5.944,0.588-11.596,1.764-16.953
			c1.176-5.355,2.792-10.304,4.851-14.846c2.058-4.54,4.491-8.656,7.3-12.347c2.808-3.69,5.846-6.811,9.114-9.358h-21.363
			c-2.222,0-3.66-0.554-4.312-1.666c-0.654-1.11-0.98-2.318-0.98-3.626v-2.548h38.315c3.004-1.044,6.107-1.568,9.309-1.568
			c1.044,0,2.073,0.147,3.087,0.441c1.012,0.294,1.943,0.801,2.793,1.519c0.848,0.72,1.534,1.683,2.058,2.891
			c0.522,1.209,0.784,2.729,0.784,4.557h-7.938c-5.619,0-10.649,1.438-15.091,4.312c-4.443,2.875-8.216,6.795-11.318,11.759
			c-3.104,4.965-5.473,10.779-7.104,17.443C236.718,110.36,235.902,117.481,235.902,125.06z"/>
		<path fill="#025583" d="M361.039,125.06c0,1.438-0.196,2.597-0.588,3.479c-0.392,0.882-0.916,1.568-1.568,2.058
			c-0.654,0.49-1.389,0.833-2.205,1.029c-0.818,0.196-1.65,0.294-2.499,0.294h-48.997c-1.242,0-2.401-0.081-3.479-0.245
			c-1.078-0.162-2.009-0.522-2.792-1.078c-0.784-0.554-1.406-1.354-1.862-2.4c-0.458-1.044-0.686-2.416-0.686-4.116
			c0-11.563,1.274-21.346,3.822-29.349c2.548-8.002,5.879-14.469,9.995-19.403c4.116-4.932,8.786-8.492,14.013-10.681
			c5.226-2.188,10.55-3.283,15.973-3.283c2.22,0,3.658,0.556,4.312,1.666c0.652,1.112,0.98,2.32,0.98,3.626v2.548h-5.292
			c-5.62,0-10.601,1.258-14.944,3.772c-4.345,2.516-8.003,6.159-10.975,10.926c-2.974,4.77-5.228,10.617-6.762,17.542
			c-1.536,6.925-2.303,14.797-2.303,23.616H361.039z"/>
		<path fill="#025583" d="M408.074,89.096c0,9.277-1.404,16.806-4.213,22.588c-2.81,5.781-7.121,10.24-12.935,13.376h44.685
			c0,1.438-0.195,2.597-0.588,3.479s-0.916,1.568-1.568,2.058c-0.654,0.49-1.389,0.833-2.205,1.029s-1.65,0.294-2.498,0.294H361.43
			c-1.634,0-2.957-0.211-3.969-0.637c-1.014-0.425-1.797-1.013-2.352-1.764c-0.556-0.751-0.931-1.633-1.126-2.646
			c-0.196-1.012-0.294-2.073-0.294-3.185v-19.402c0-7.512,0.946-13.98,2.842-19.403c1.894-5.421,4.753-9.863,8.575-13.327
			c3.822-3.462,8.656-6.026,14.503-7.692c5.846-1.666,12.754-2.499,20.726-2.499c1.633,0,2.956,0.212,3.969,0.637
			c1.012,0.426,1.795,1.014,2.352,1.764c0.555,0.751,0.932,1.633,1.127,2.646c0.195,1.014,0.293,2.075,0.293,3.185V89.096z
			 M362.508,125.06c6.532,0,12.117-0.701,16.757-2.107c4.638-1.403,8.443-3.56,11.416-6.467c2.972-2.906,5.145-6.63,6.517-11.172
			c1.372-4.54,2.058-9.946,2.058-16.218V69.203c-6.534,0-12.119,0.654-16.757,1.96c-4.64,1.308-8.444,3.365-11.417,6.173
			c-2.974,2.81-5.145,6.436-6.517,10.877c-1.372,4.443-2.058,9.799-2.058,16.071V125.06z"/>
		<path fill="#025583" d="M438.55,131.919c-2.744,0-4.753-0.701-6.026-2.106c-1.274-1.404-1.911-3.675-1.911-6.811
			c0-1.765,0.179-3.462,0.539-5.096c0.358-1.633,0.865-3.2,1.519-4.704V64.303c0-0.522,0.196-0.98,0.588-1.372
			c0.393-0.392,0.849-0.588,1.372-0.588h4.899c0.522,0,0.98,0.196,1.372,0.588c0.393,0.392,0.588,0.85,0.588,1.372v32.044
			c2.091-4.704,4.475-9.162,7.154-13.376c2.678-4.214,5.487-7.921,8.427-11.122c2.94-3.2,5.912-5.748,8.918-7.644
			c3.004-1.894,5.846-2.842,8.525-2.842c1.698,0,3.119,0.229,4.263,0.686c1.142,0.458,2.058,1.078,2.743,1.862
			c0.687,0.784,1.159,1.715,1.421,2.792c0.261,1.078,0.393,2.239,0.393,3.479v54.876h31.357c0,1.438-0.195,2.597-0.588,3.479
			c-0.392,0.882-0.915,1.568-1.567,2.058c-0.654,0.49-1.389,0.833-2.205,1.029c-0.817,0.196-1.65,0.294-2.499,0.294h-27.438
			c-0.719,0-1.438-0.081-2.155-0.245c-0.72-0.162-1.356-0.456-1.911-0.882c-0.556-0.424-0.997-1.012-1.323-1.764
			c-0.327-0.75-0.489-1.747-0.489-2.989V69.203c-1.568,0-3.464,0.769-5.684,2.303c-2.222,1.536-4.557,3.626-7.007,6.271
			c-2.45,2.646-4.885,5.782-7.301,9.408c-2.417,3.625-4.59,7.545-6.517,11.759c-1.928,4.214-3.495,8.591-4.703,13.131
			c-1.21,4.541-1.813,9.098-1.813,13.67v6.174H438.55z"/>
		<path fill="#025583" d="M517.63,131.919c-2.744,0-4.753-0.701-6.026-2.106c-1.274-1.404-1.911-3.675-1.911-6.811
			c0-1.765,0.179-3.462,0.539-5.096c0.358-1.633,0.865-3.2,1.519-4.704V64.303c0-0.522,0.196-0.98,0.588-1.372
			c0.393-0.392,0.849-0.588,1.372-0.588h4.899c0.522,0,0.98,0.196,1.372,0.588c0.393,0.392,0.588,0.85,0.588,1.372v32.044
			c2.091-4.704,4.475-9.162,7.154-13.376c2.678-4.214,5.487-7.921,8.427-11.122c2.94-3.2,5.912-5.748,8.918-7.644
			c3.004-1.894,5.846-2.842,8.525-2.842c1.698,0,3.119,0.229,4.263,0.686c1.142,0.458,2.058,1.078,2.743,1.862
			c0.687,0.784,1.159,1.715,1.421,2.792c0.261,1.078,0.393,2.239,0.393,3.479v54.876h31.357c0,1.438-0.195,2.597-0.588,3.479
			c-0.392,0.882-0.915,1.568-1.567,2.058c-0.654,0.49-1.389,0.833-2.205,1.029c-0.817,0.196-1.65,0.294-2.499,0.294h-27.438
			c-0.719,0-1.438-0.081-2.155-0.245c-0.72-0.162-1.356-0.456-1.911-0.882c-0.556-0.424-0.997-1.012-1.323-1.764
			c-0.327-0.75-0.489-1.747-0.489-2.989V69.203c-1.568,0-3.464,0.769-5.684,2.303c-2.222,1.536-4.557,3.626-7.007,6.271
			c-2.45,2.646-4.885,5.782-7.301,9.408c-2.417,3.625-4.59,7.545-6.517,11.759c-1.928,4.214-3.495,8.591-4.703,13.131
			c-1.21,4.541-1.813,9.098-1.813,13.67v6.174H517.63z"/>
		<path fill="#025583" d="M661.68,125.06c0,1.438-0.196,2.597-0.588,3.479s-0.916,1.568-1.568,2.058
			c-0.653,0.49-1.389,0.833-2.204,1.029c-0.818,0.196-1.651,0.294-2.499,0.294h-55.856c-1.242,0-2.401-0.081-3.479-0.245
			c-1.078-0.162-2.009-0.522-2.793-1.078c-0.784-0.554-1.405-1.354-1.862-2.4c-0.458-1.044-0.686-2.416-0.686-4.116
			c0-1.436,0.211-3.053,0.637-4.851c0.424-1.796,1.062-3.641,1.911-5.536c0.848-1.895,1.894-3.788,3.136-5.684
			c1.24-1.895,2.71-3.69,4.409-5.39c-1.176,0-2.254-0.113-3.233-0.343c-0.979-0.229-1.83-0.62-2.548-1.177
			c-0.72-0.554-1.291-1.338-1.715-2.352c-0.426-1.012-0.637-2.335-0.637-3.969c0-2.352,0.539-4.817,1.616-7.398
			c1.078-2.58,2.612-5.111,4.606-7.595c1.992-2.482,4.393-4.833,7.202-7.055c2.809-2.22,5.944-4.18,9.407-5.88
			c3.462-1.698,7.203-3.038,11.221-4.018s8.246-1.47,12.69-1.47c2.22,0,3.657,0.556,4.312,1.666c0.652,1.112,0.979,2.32,0.979,3.626
			v2.548h-5.291c-6.86,0-12.739,0.948-17.64,2.842c-4.899,1.896-8.917,4.214-12.053,6.958s-5.456,5.603-6.958,8.574
			c-1.503,2.974-2.254,5.537-2.254,7.693h10.485c1.895-0.914,3.936-1.617,6.125-2.107c2.188-0.49,4.523-0.735,7.007-0.735
			c1.109,0,2.22,0.164,3.331,0.49c1.11,0.328,2.122,0.882,3.038,1.666c0.914,0.784,1.649,1.83,2.205,3.136
			c0.554,1.308,0.833,2.94,0.833,4.9h-19.795c-2.875,1.503-5.292,3.233-7.252,5.193c-1.959,1.96-3.527,3.969-4.703,6.026
			c-1.176,2.059-2.009,4.067-2.499,6.027c-0.49,1.959-0.735,3.691-0.735,5.193H661.68z"/>
		<path fill="#025583" d="M716.065,125.06c0,1.438-0.195,2.597-0.588,3.479c-0.392,0.882-0.915,1.568-1.567,2.058
			c-0.654,0.49-1.389,0.833-2.205,1.029c-0.817,0.196-1.65,0.294-2.499,0.294h-48.997c-1.241,0-2.4-0.081-3.479-0.245
			c-1.078-0.162-2.009-0.522-2.793-1.078c-0.783-0.554-1.405-1.354-1.861-2.4c-0.458-1.044-0.687-2.416-0.687-4.116
			c0-11.563,1.274-21.346,3.822-29.349c2.548-8.002,5.88-14.469,9.995-19.403c4.116-4.932,8.786-8.492,14.013-10.681
			c5.227-2.188,10.55-3.283,15.974-3.283c2.22,0,3.657,0.556,4.312,1.666c0.652,1.112,0.979,2.32,0.979,3.626v2.548h-5.291
			c-5.619,0-10.601,1.258-14.944,3.772c-4.346,2.516-8.003,6.159-10.976,10.926c-2.973,4.77-5.227,10.617-6.761,17.542
			c-1.536,6.925-2.304,14.797-2.304,23.616H716.065z"/>
		<path fill="#025583" d="M720.769,125.06c6.532,0,11.922-0.571,16.169-1.715c4.246-1.143,7.595-2.874,10.045-5.194
			c2.449-2.317,4.164-5.242,5.145-8.77c0.979-3.528,1.47-7.708,1.47-12.543c0-2.417,0.62-4.001,1.861-4.753
			c1.24-0.75,2.612-1.127,4.116-1.127h2.842v5.88c0,7.055-0.979,12.837-2.939,17.344c-1.96,4.508-5.26,8.134-9.897,10.878h41.941
			c0,1.438-0.196,2.597-0.588,3.479c-0.393,0.882-0.916,1.568-1.568,2.058c-0.653,0.49-1.389,0.833-2.205,1.029
			c-0.817,0.196-1.65,0.294-2.499,0.294h-64.97c-1.634,0-2.956-0.211-3.969-0.637c-1.014-0.425-1.797-1.013-2.352-1.764
			c-0.556-0.751-0.931-1.633-1.127-2.646c-0.196-1.012-0.294-2.073-0.294-3.185c0-5.944,0.588-11.596,1.764-16.953
			c1.176-5.355,2.793-10.304,4.851-14.846c2.059-4.54,4.491-8.656,7.301-12.347c2.809-3.69,5.846-6.811,9.113-9.358h-21.362
			c-2.222,0-3.659-0.554-4.312-1.666c-0.654-1.11-0.98-2.318-0.98-3.626v-2.548h38.315c3.005-1.044,6.108-1.568,9.31-1.568
			c1.045,0,2.073,0.147,3.087,0.441c1.012,0.294,1.943,0.801,2.793,1.519c0.849,0.72,1.534,1.683,2.058,2.891
			c0.522,1.209,0.784,2.729,0.784,4.557h-7.938c-5.619,0-10.649,1.438-15.091,4.312c-4.443,2.875-8.217,6.795-11.318,11.759
			c-3.104,4.965-5.473,10.779-7.104,17.443C721.585,110.36,720.769,117.481,720.769,125.06z"/>
	</g>
</g>
<g id="Layer_2">
</g>
</svg>
