<?xml version="1.0" encoding="utf-8"?>
<!-- Generator: Adobe Illustrator 16.0.0, SVG Export Plug-In . SVG Version: 6.00 Build 0)  -->
<!DOCTYPE svg PUBLIC "-//W3C//DTD SVG 1.1//EN" "http://www.w3.org/Graphics/SVG/1.1/DTD/svg11.dtd">
<svg version="1.1" id="Layer_1" xmlns="http://www.w3.org/2000/svg" xmlns:xlink="http://www.w3.org/1999/xlink" x="0px" y="0px"
	 width="48px" height="48px" viewBox="0 0 48 48" enable-background="new 0 0 48 48" xml:space="preserve">
<path fill="002b42" d="M27,36.482h4c0.552,0,1-0.447,1-1v-4c0-0.553-0.448-1-1-1h-4c-0.552,0-1,0.447-1,1v4
	C26,36.035,26.448,36.482,27,36.482 M9,32.482h12c0.552,0,1-0.447,1-1s-0.448-1-1-1H9c-0.552,0-1,0.447-1,1S8.448,32.482,9,32.482
	 M9,36.482h8c0.552,0,1-0.447,1-1c0-0.552-0.448-1-1-1H9c-0.552,0-1,0.448-1,1C8,36.035,8.448,36.482,9,36.482 M36,14.482H4
	c-1.104,0-2,0.896-2,2v24c0,1.104,0.896,2,2,2h32c1.104,0,2-0.896,2-2v-24C38,15.379,37.104,14.482,36,14.482 M36,40.482H4v-14h32
	V40.482z M36,20.482H4v-4h32V20.482z M44,6.482H12c-1.104,0-2,0.896-2,2v3c0,0.553,0.448,1,1,1s1-0.447,1-1v-3h32v24h-3
	c-0.552,0-1,0.448-1,1c0,0.553,0.448,1,1,1h3c1.104,0,2-0.896,2-2v-24C46,7.379,45.104,6.482,44,6.482"/>
<g>
</g>
<g>
</g>
<g>
</g>
<g>
</g>
<g>
</g>
<g>
</g>
</svg>
