<?xml version="1.0" encoding="utf-8"?>
<!-- Generator: Adobe Illustrator 16.0.0, SVG Export Plug-In . SVG Version: 6.00 Build 0)  -->
<!DOCTYPE svg PUBLIC "-//W3C//DTD SVG 1.1//EN" "http://www.w3.org/Graphics/SVG/1.1/DTD/svg11.dtd">
<svg version="1.1" id="Layer_1" xmlns="http://www.w3.org/2000/svg" xmlns:xlink="http://www.w3.org/1999/xlink" x="0px" y="0px"
	 width="1195px" height="220px" viewBox="0 0 1195 220" enable-background="new 0 0 1195 220" xml:space="preserve">
<rect y="24" display="none" fill="#377CC0" width="1175" height="196"/>
<rect y="60" display="none" fill="#FFFFFF" width="683" height="150.887"/>
<g>
	<path fill="#FFFFFF" d="M53.079,117.453H36.092c0-3.999,0.958-6.874,2.875-8.625c1.915-1.749,4.006-2.625,6.272-2.625h7.84
		c0-3.9,0.262-7.898,0.784-12c0.522-4.099,1.438-8.048,2.744-11.85c1.307-3.799,3.048-7.425,5.227-10.875
		c2.176-3.45,4.92-6.424,8.232-8.925c3.309-2.499,7.229-4.5,11.76-6c4.528-1.5,9.8-2.25,15.811-2.25c1.48,0,2.852,0.577,4.116,1.725
		c1.262,1.151,1.895,3.577,1.895,7.275v3h-6.794c-5.053,0-9.343,0.675-12.871,2.025s-6.468,3.15-8.82,5.4s-4.226,4.777-5.619,7.575
		c-1.395,2.801-2.439,5.677-3.136,8.625c-0.698,2.951-1.133,5.85-1.307,8.7c-0.176,2.85-0.261,5.376-0.261,7.575h62.327
		c0,2.201-0.262,4.027-0.784,5.475c-0.522,1.451-1.221,2.602-2.091,3.45c-0.872,0.851-1.852,1.451-2.94,1.8
		c-1.09,0.352-2.201,0.525-3.332,0.525H64.839v44.85c0,8.498-0.653,15.698-1.96,21.6c-1.307,5.899-3.377,10.699-6.207,14.4
		c-2.832,3.698-6.447,6.375-10.845,8.025c-4.399,1.649-9.691,2.475-15.875,2.475c-2.787,0-4.704-0.802-5.75-2.4
		c-1.045-1.601-1.568-4.251-1.568-7.949v-1.65h7.317c3.92,0,7.337-0.326,10.257-0.975c2.917-0.652,5.312-2.176,7.187-4.575
		c1.872-2.4,3.287-5.901,4.247-10.5c0.958-4.601,1.437-10.852,1.437-18.75V117.453z"/>
	<path fill="#FFFFFF" d="M136.312,151.053c2.09,0,4.42-0.525,6.99-1.575c2.568-1.05,5.182-2.648,7.84-4.8
		c2.656-2.149,5.27-4.85,7.84-8.1c2.569-3.249,4.835-7.1,6.795-11.551c1.96-4.448,3.548-9.524,4.769-15.225
		c1.219-5.7,1.83-12.049,1.83-19.05v-9.45h4.704c6.533,0,9.8,4.552,9.8,13.65c0,2.7-0.261,5.302-0.784,7.8
		c-0.523,2.5-1.176,4.9-1.96,7.2v41.85h41.943c0,2.201-0.261,3.975-0.783,5.325c-0.523,1.35-1.221,2.399-2.091,3.149
		c-0.872,0.75-1.853,1.275-2.94,1.575c-1.09,0.3-2.201,0.45-3.332,0.45h-36.586c-0.959,0-1.917-0.124-2.875-0.375
		c-0.959-0.248-1.809-0.698-2.548-1.35c-0.741-0.649-1.352-1.55-1.83-2.7c-0.479-1.148-0.718-2.675-0.718-4.575v-20.7
		c-2.352,4.702-4.965,8.925-7.84,12.675c-2.875,3.75-5.88,6.926-9.016,9.525c-3.136,2.602-6.337,4.627-9.604,6.075
		s-6.468,2.175-9.604,2.175c-2.267,0-4.161-0.352-5.684-1.05c-1.525-0.698-2.744-1.65-3.659-2.851
		c-0.915-1.199-1.547-2.625-1.895-4.274c-0.349-1.65-0.523-3.425-0.523-5.325v-36.9c0-5.599,0.523-10.474,1.568-14.625
		c1.045-4.148,2.744-7.575,5.096-10.275c2.352-2.7,5.423-4.699,9.212-6c3.789-1.299,8.383-1.95,13.785-1.95
		c3.744,0,6.619,0.802,8.624,2.4c2.003,1.601,3.005,4.301,3.005,8.1v1.5h-11.629c-3.136,0-5.814,0.276-8.036,0.825
		c-2.221,0.551-4.073,1.601-5.553,3.15c-1.482,1.551-2.57,3.675-3.267,6.375c-0.698,2.7-1.045,6.202-1.045,10.5V151.053z"/>
	<path fill="#FFFFFF" d="M226.078,82.503c0-3,0.783-5.574,2.352-7.725c1.568-2.149,3.92-3.225,7.057-3.225
		c3.135,0,5.508,1.076,7.121,3.225c1.611,2.151,2.416,4.725,2.416,7.725c0,1.301-0.109,2.426-0.326,3.375
		c-0.219,0.951-0.414,1.776-0.588,2.475l8.232,7.35c2.176,2.001,4.484,4.151,6.926,6.45c2.438,2.301,4.639,4.8,6.598,7.5
		c1.961,2.7,3.594,5.7,4.9,9s1.959,6.9,1.959,10.8c0,4.199-0.697,8.301-2.09,12.3c-1.395,4.001-4.051,7.35-7.971,10.05h38.678
		c0,2.201-0.262,3.975-0.785,5.325c-0.521,1.35-1.221,2.399-2.09,3.149c-0.873,0.75-1.852,1.275-2.941,1.575s-2.199,0.45-3.332,0.45
		h-48.867c-0.961,0-1.918-0.124-2.875-0.375c-0.959-0.248-1.809-0.698-2.549-1.35c-0.74-0.649-1.328-1.55-1.764-2.7
		c-0.438-1.148-0.652-2.675-0.652-4.575v-1.5h4.311c4.006,0,7.361-0.725,10.063-2.175c2.699-1.448,4.877-3.274,6.533-5.476
		c1.652-2.198,2.83-4.598,3.527-7.199c0.697-2.6,1.045-5.101,1.045-7.5c0-2.4-0.307-4.523-0.914-6.375
		c-0.611-1.85-1.438-3.575-2.482-5.175c-1.045-1.599-2.266-3.049-3.658-4.35c-1.395-1.298-2.832-2.648-4.313-4.05l-9.408-8.4
		l-21.168,59.4c-0.437,1.2-1.176,1.8-2.221,1.8h-7.317c-1.221,0-1.829-0.649-1.829-1.95c0-0.698,0.174-1.5,0.522-2.399
		l22.997-65.101l-2.09-1.95C227.078,88.903,226.078,86.103,226.078,82.503z"/>
	<path fill="#FFFFFF" d="M313.229,93.303v58.5h45.732c0,2.201-0.261,3.975-0.783,5.325c-0.523,1.35-1.222,2.399-2.091,3.149
		c-0.872,0.75-1.852,1.275-2.94,1.575c-1.09,0.3-2.2,0.45-3.332,0.45H309.31c-0.96,0-1.917-0.124-2.875-0.375
		c-0.959-0.248-1.809-0.698-2.548-1.35c-0.741-0.649-1.352-1.55-1.829-2.7c-0.479-1.148-0.719-2.675-0.719-4.575v-60h-16.986
		c0-4.399,0.958-7.5,2.875-9.3c1.915-1.8,4.006-2.7,6.271-2.7h7.84v-21c0-0.799,0.262-1.5,0.784-2.1s1.131-0.9,1.829-0.9h6.533
		c0.696,0,1.307,0.3,1.829,0.9c0.523,0.6,0.827,1.301,0.915,2.1v21h22.213c0,4.401-0.959,7.5-2.874,9.3
		c-1.917,1.8-4.008,2.7-6.272,2.7H313.229z"/>
</g>
<g>
	<g>
		<path fill="#FFFFFF" d="M403.867,96.853c0,2.602-0.15,4.976-0.45,7.125c-0.302,2.152-0.881,4.027-1.738,5.625
			c-0.859,1.601-2.082,2.85-3.67,3.75c-1.589,0.9-3.669,1.35-6.244,1.35v-23.4c-5.752,0-10.709,0.701-14.871,2.1
			c-4.164,1.401-7.597,3.727-10.301,6.975c-2.703,3.25-4.699,7.551-5.986,12.9c-1.288,5.351-1.932,12.026-1.932,20.025
			c0,4.401,0.148,7.9,0.45,10.5c0.3,2.602,1.051,4.575,2.254,5.925c1.201,1.351,3.025,2.201,5.472,2.55
			c2.446,0.352,5.814,0.525,10.107,0.525h56.137c0,2.201-0.258,3.975-0.772,5.325c-0.516,1.35-1.203,2.399-2.061,3.149
			c-0.858,0.75-1.824,1.275-2.896,1.575c-1.074,0.3-2.169,0.45-3.283,0.45h-47.124c-7.039,0-12.554-0.424-16.545-1.275
			c-3.991-0.848-6.997-2.399-9.013-4.649c-2.018-2.25-3.264-5.3-3.734-9.15c-0.473-3.849-0.708-8.824-0.708-14.925
			c0-18.199,3.561-31.749,10.687-40.65c7.124-8.899,17.553-13.35,31.287-13.35c3.091,0,5.602,0.427,7.532,1.275
			c1.932,0.851,3.454,2.077,4.571,3.675c1.114,1.601,1.866,3.476,2.253,5.625C403.675,92.029,403.867,94.354,403.867,96.853z"/>
		<path fill="#FFFFFF" d="M472.492,83.503c0-3,0.772-5.574,2.317-7.725c1.545-2.149,3.862-3.225,6.952-3.225
			c2.918,0,5.171,0.952,6.76,2.85c1.588,1.901,2.467,4.2,2.64,6.9h46.094c0,4.401-0.945,7.5-2.832,9.3
			c-1.89,1.8-3.949,2.7-6.181,2.7H493.35v15c0,18.201-3.971,31.751-11.909,40.65c-7.94,8.901-20.194,13.35-36.76,13.35
			c-2.403,0-4.357-0.35-5.858-1.05c-1.502-0.698-2.684-1.65-3.54-2.851c-0.859-1.199-1.438-2.625-1.738-4.274
			c-0.302-1.65-0.451-3.425-0.451-5.325v-36.15c0-5.599,0.516-10.474,1.546-14.625c1.029-4.148,2.703-7.575,5.021-10.275
			c2.318-2.7,5.344-4.699,9.077-6c3.734-1.299,8.261-1.95,13.584-1.95c2.402,0,4.269,0.802,5.601,2.4
			c1.33,1.601,1.996,4.301,1.996,8.1v1.5h-7.597c-3.09,0-5.729,0.276-7.918,0.825c-2.189,0.551-4.014,1.601-5.473,3.15
			c-1.46,1.551-2.532,3.675-3.219,6.375c-0.688,2.7-1.03,6.202-1.03,10.5v37.65c6.438,0,11.975-0.698,16.609-2.1
			c4.636-1.399,8.476-3.725,11.523-6.976c3.046-3.248,5.299-7.549,6.76-12.899c1.459-5.349,2.188-12.024,2.188-20.025v-15
			c-3.09,0-5.407-1.05-6.952-3.15S472.492,86.503,472.492,83.503z"/>
		<path fill="#FFFFFF" d="M536.097,163.303c-3.605,0-6.245-1.073-7.919-3.225c-1.674-2.149-2.51-5.625-2.51-10.426
			c0-2.699,0.235-5.299,0.708-7.8c0.471-2.498,1.137-4.898,1.995-7.2v-49.35c0-0.799,0.258-1.5,0.772-2.1
			c0.516-0.6,1.115-0.9,1.803-0.9h6.438c0.687,0,1.288,0.3,1.803,0.9c0.516,0.6,0.772,1.301,0.772,2.1v27
			c2.402-4.898,5.086-9.398,8.047-13.5c2.962-4.099,6.072-7.575,9.335-10.425c3.262-2.85,6.566-5.074,9.914-6.675
			c3.348-1.598,6.566-2.4,9.656-2.4c2.231,0,4.099,0.352,5.602,1.05c1.5,0.701,2.703,1.65,3.604,2.85
			c0.901,1.2,1.523,2.625,1.867,4.275c0.342,1.65,0.515,3.427,0.515,5.325v60h41.202c0,2.201-0.258,3.975-0.773,5.325
			c-0.515,1.35-1.202,2.399-2.06,3.149c-0.859,0.75-1.825,1.275-2.897,1.575c-1.074,0.3-2.168,0.45-3.283,0.45h-36.051
			c-0.945,0-1.889-0.124-2.832-0.375c-0.946-0.248-1.783-0.698-2.511-1.35c-0.73-0.649-1.311-1.55-1.738-2.7
			c-0.431-1.148-0.645-2.675-0.645-4.575v-63c-3.09,0-6.739,1.301-10.943,3.9c-4.207,2.602-8.24,6.501-12.104,11.7
			c-3.862,5.201-7.146,11.7-9.85,19.5c-2.703,7.801-4.056,16.95-4.056,27.45v9.45H536.097z"/>
		<path fill="#FFFFFF" d="M637.554,163.303c-3.605,0-6.245-1.073-7.919-3.225c-1.674-2.149-2.51-5.625-2.51-10.426
			c0-2.699,0.235-5.299,0.708-7.8c0.471-2.498,1.137-4.898,1.995-7.2v-49.35c0-0.799,0.258-1.5,0.772-2.1
			c0.516-0.6,1.115-0.9,1.803-0.9h6.438c0.687,0,1.288,0.3,1.803,0.9c0.516,0.6,0.772,1.301,0.772,2.1v27
			c2.402-4.898,5.086-9.398,8.047-13.5c2.962-4.099,6.072-7.575,9.335-10.425c3.262-2.85,6.566-5.074,9.914-6.675
			c3.348-1.598,6.566-2.4,9.656-2.4c2.231,0,4.099,0.352,5.602,1.05c1.5,0.701,2.703,1.65,3.604,2.85
			c0.901,1.2,1.523,2.625,1.867,4.275c0.342,1.65,0.515,3.427,0.515,5.325v60h41.202c0,2.201-0.258,3.975-0.773,5.325
			c-0.515,1.35-1.202,2.399-2.06,3.149c-0.859,0.75-1.825,1.275-2.897,1.575c-1.074,0.3-2.168,0.45-3.283,0.45h-36.051
			c-0.945,0-1.889-0.124-2.832-0.375c-0.946-0.248-1.783-0.698-2.511-1.35c-0.73-0.649-1.311-1.55-1.738-2.7
			c-0.431-1.148-0.645-2.675-0.645-4.575v-63c-3.09,0-6.739,1.301-10.943,3.9c-4.207,2.602-8.24,6.501-12.104,11.7
			c-3.862,5.201-7.146,11.7-9.85,19.5c-2.703,7.801-4.056,16.95-4.056,27.45v9.45H637.554z"/>
		<path fill="#FFFFFF" d="M737.723,133.303c0,4.401,0.149,7.9,0.451,10.5c0.3,2.602,1.05,4.575,2.253,5.925
			c1.201,1.351,3.025,2.201,5.473,2.55c2.446,0.352,5.813,0.525,10.106,0.525h57.425c0,2.201-0.258,3.975-0.772,5.325
			c-0.516,1.35-1.203,2.399-2.061,3.149c-0.858,0.75-1.824,1.275-2.896,1.575c-1.074,0.3-2.169,0.45-3.283,0.45h-48.412
			c-7.039,0-12.554-0.424-16.545-1.275c-3.991-0.848-6.997-2.399-9.013-4.649c-2.018-2.25-3.263-5.3-3.733-9.15
			c-0.473-3.849-0.708-8.824-0.708-14.925v-6.15c0-8.599,0.492-15.848,1.48-21.75c0.985-5.899,3.132-10.673,6.438-14.325
			c3.304-3.649,8.067-6.274,14.292-7.875c6.223-1.598,14.613-2.4,25.171-2.4c4.462,0,7.51,1.301,9.142,3.9
			c1.63,2.602,2.446,5.751,2.446,9.45c0,7.702-0.623,14.077-1.867,19.125c-1.245,5.051-3.198,9.075-5.857,12.075
			c-2.662,3-6.074,5.101-10.236,6.3c-4.164,1.2-9.164,1.801-15,1.801c-2.317,0-3.971-0.539-4.957-1.617
			c-0.987-1.078-1.48-3.211-1.48-6.396v-3.236h10.172c3.174,0,5.878-0.328,8.111-0.984c2.23-0.656,4.056-1.972,5.472-3.94
			s2.446-4.875,3.09-8.714c0.645-3.839,0.966-9.091,0.966-15.762c-7.812,0-14.056,0.352-18.733,1.05
			c-4.68,0.701-8.284,2.25-10.815,4.65c-2.533,2.4-4.185,5.875-4.957,10.425c-0.772,4.552-1.159,10.676-1.159,18.375V133.303z"/>
		<path fill="#FFFFFF" d="M863.901,96.853c0,2.602-0.15,4.976-0.45,7.125c-0.302,2.152-0.881,4.027-1.738,5.625
			c-0.859,1.601-2.082,2.85-3.67,3.75c-1.589,0.9-3.669,1.35-6.244,1.35v-23.4c-5.752,0-10.709,0.701-14.871,2.1
			c-4.164,1.401-7.597,3.727-10.301,6.975c-2.703,3.25-4.699,7.551-5.986,12.9c-1.288,5.351-1.932,12.026-1.932,20.025
			c0,4.401,0.148,7.9,0.45,10.5c0.3,2.602,1.051,4.575,2.254,5.925c1.201,1.351,3.025,2.201,5.472,2.55
			c2.446,0.352,5.814,0.525,10.107,0.525h56.137c0,2.201-0.258,3.975-0.772,5.325c-0.516,1.35-1.203,2.399-2.061,3.149
			c-0.858,0.75-1.824,1.275-2.896,1.575c-1.074,0.3-2.169,0.45-3.283,0.45h-47.124c-7.039,0-12.554-0.424-16.545-1.275
			c-3.991-0.848-6.997-2.399-9.013-4.649c-2.018-2.25-3.264-5.3-3.734-9.15c-0.473-3.849-0.708-8.824-0.708-14.925
			c0-18.199,3.561-31.749,10.687-40.65c7.124-8.899,17.553-13.35,31.287-13.35c3.091,0,5.602,0.427,7.532,1.275
			c1.932,0.851,3.454,2.077,4.571,3.675c1.114,1.601,1.866,3.476,2.253,5.625C863.709,92.029,863.901,94.354,863.901,96.853z"/>
		<path fill="#FFFFFF" d="M904.844,94.303v58.5h45.064c0,2.201-0.258,3.975-0.772,5.325c-0.516,1.35-1.203,2.399-2.061,3.149
			c-0.859,0.75-1.824,1.275-2.896,1.575c-1.075,0.3-2.169,0.45-3.283,0.45h-39.914c-0.945,0-1.89-0.124-2.833-0.375
			c-0.945-0.248-1.782-0.698-2.511-1.35c-0.729-0.649-1.331-1.55-1.802-2.7c-0.474-1.148-0.709-2.675-0.709-4.575v-60H876.39
			c0-4.399,0.943-7.5,2.832-9.3c1.888-1.8,3.947-2.7,6.181-2.7h7.725v-21c0-0.799,0.258-1.5,0.772-2.1
			c0.516-0.6,1.115-0.9,1.803-0.9h6.438c0.687,0,1.288,0.3,1.803,0.9c0.516,0.6,0.815,1.301,0.901,2.1v21h21.889
			c0,4.401-0.946,7.5-2.833,9.3c-1.889,1.8-3.949,2.7-6.18,2.7H904.844z"/>
	</g>
</g>
<circle fill="none" stroke="#FFFFFF" stroke-width="10" cx="1052.946" cy="123.629" r="62.107"/>
<path fill="#FFFFFF" d="M1061.977,42.618c0,0,24.413-12.705,53.604-10.083c0,0-9.032,4.728-7.492,11.358
	c0.512,2.209,3.008,4.718,8.183,3.917c0,0,8.657-0.684,8.888-14.267c0,0,30.369,12.55,53.134-17.542c0,0,8.492,28.471-33.335,52.526
	c0,0,12.528,7.467,31.021-13.959c0,0,5.227,28.19-26.32,36.43c0,0-8.551,1.283-9.526,9.31c0,0-0.351,7.731,8.992,6.368
	c0,0,5.011-1.02,7.643-7.054c0,0-3.58,23.749-25.332,42.993C1131.434,142.613,1155.79,61.41,1061.977,42.618z"/>
<circle fill="#FFFFFF" cx="1051.38" cy="132.52" r="9.46"/>
<line fill="none" stroke="#FFFFFF" stroke-width="10" x1="1078.286" y1="114.117" x2="1054.705" y2="131.078"/>
<circle fill="#FFFFFF" cx="1080.318" cy="112.779" r="7.364"/>
<line fill="none" stroke="#FFFFFF" stroke-width="8" x1="1014.872" y1="103.925" x2="1050.888" y2="133.381"/>
<circle fill="#FFFFFF" cx="1014.874" cy="103.925" r="6.528"/>
<g>
</g>
<g>
</g>
<g>
</g>
<g>
</g>
<g>
</g>
<g>
</g>
</svg>
