<?xml version="1.0" encoding="utf-8"?>
<!-- Generator: Adobe Illustrator 16.0.0, SVG Export Plug-In . SVG Version: 6.00 Build 0)  -->
<!DOCTYPE svg PUBLIC "-//W3C//DTD SVG 1.1//EN" "http://www.w3.org/Graphics/SVG/1.1/DTD/svg11.dtd">
<svg version="1.1" id="Layer_1" xmlns="http://www.w3.org/2000/svg" xmlns:xlink="http://www.w3.org/1999/xlink" x="0px" y="0px"
	 width="48px" height="48px" viewBox="0 0 48 48" enable-background="new 0 0 48 48" xml:space="preserve">
<path fill="#002B42" d="M37.2,21.6c-5.97,0-10.8,4.83-10.8,10.8c0,5.97,4.83,10.8,10.8,10.8S48,38.37,48,32.4
	C48,26.43,43.17,21.6,37.2,21.6z M42,32.873c0,0.396-0.33,0.727-0.728,0.727h-4.545C36.33,33.6,36,33.27,36,32.873v-5.746
	c0-0.396,0.33-0.727,0.728-0.727h0.944c0.398,0,0.729,0.33,0.729,0.727V31.2h2.872C41.67,31.2,42,31.529,42,31.928V32.873z M24,32.4
	c0-2.086,0.502-4.059,1.365-5.813c-0.6-0.113-1.215-0.188-1.845-0.188h-1.252C20.603,27.165,18.75,27.6,16.8,27.6
	c-1.95,0-3.795-0.435-5.467-1.199H10.08C4.515,26.4,0,30.915,0,36.48V39.6C0,41.588,1.612,43.2,3.6,43.2h26.033
	C26.234,40.808,24,36.862,24,32.4z M16.8,24c5.303,0,9.601-4.297,9.601-9.6c0-5.302-4.298-9.6-9.601-9.6c-5.302,0-9.6,4.298-9.6,9.6
	C7.2,19.703,11.498,24,16.8,24z"/>
</svg>
