<?xml version="1.0" encoding="utf-8"?>
<!-- Generator: Adobe Illustrator 16.0.0, SVG Export Plug-In . SVG Version: 6.00 Build 0)  -->
<!DOCTYPE svg PUBLIC "-//W3C//DTD SVG 1.1//EN" "http://www.w3.org/Graphics/SVG/1.1/DTD/svg11.dtd">
<svg version="1.1" id="Layer_1" xmlns="http://www.w3.org/2000/svg" xmlns:xlink="http://www.w3.org/1999/xlink" x="0px" y="0px"
	 width="16px" height="16px" viewBox="0 0 16 16" enable-background="new 0 0 16 16" xml:space="preserve">
<path fill="#025583" d="M13.5,7h-0.75V4.75C12.75,2.131,10.619,0,8,0C5.381,0,3.25,2.131,3.25,4.75V7H2.5C1.672,7,1,7.672,1,8.5v6
	C1,15.328,1.672,16,2.5,16h11c0.828,0,1.5-0.672,1.5-1.5v-6C15,7.672,14.328,7,13.5,7z M10.25,7h-4.5V4.75
	C5.75,3.509,6.759,2.5,8,2.5c1.24,0,2.25,1.009,2.25,2.25V7z"/>
</svg>
