<?xml version="1.0" encoding="utf-8"?>
<!-- Generator: Adobe Illustrator 16.0.0, SVG Export Plug-In . SVG Version: 6.00 Build 0)  -->
<!DOCTYPE svg PUBLIC "-//W3C//DTD SVG 1.1//EN" "http://www.w3.org/Graphics/SVG/1.1/DTD/svg11.dtd">
<svg version="1.1" id="Layer_1" xmlns="http://www.w3.org/2000/svg" xmlns:xlink="http://www.w3.org/1999/xlink" x="0px" y="0px"
	 width="16px" height="16px" viewBox="192 192 16 16" enable-background="new 192 192 16 16" xml:space="preserve">
<path fill="#025583" d="M192.997,194.308c0,7.015,5.684,12.687,12.687,12.687c0.31,0,0.57-0.213,0.64-0.508l0.656-2.844
	c0.071-0.309-0.09-0.626-0.383-0.754l-3.063-1.313c-0.268-0.114-0.58-0.038-0.766,0.188l-1.355,1.657
	c-2.141-1.003-3.861-2.748-4.846-4.845l1.657-1.356c0.227-0.184,0.304-0.498,0.188-0.766l-1.313-3.063
	c-0.125-0.29-0.442-0.451-0.751-0.38l-2.844,0.657C193.207,193.737,192.997,194.002,192.997,194.308z"/>
</svg>
