<?xml version="1.0" encoding="utf-8"?>
<!-- Generator: Adobe Illustrator 16.0.0, SVG Export Plug-In . SVG Version: 6.00 Build 0)  -->
<!DOCTYPE svg PUBLIC "-//W3C//DTD SVG 1.1//EN" "http://www.w3.org/Graphics/SVG/1.1/DTD/svg11.dtd">
<svg version="1.1" id="Layer_1" xmlns="http://www.w3.org/2000/svg" xmlns:xlink="http://www.w3.org/1999/xlink" x="0px" y="0px"
	 width="16px" height="16px" viewBox="0 0 48 48" enable-background="new 0 0 48 48" xml:space="preserve">
<path fill="#025583" d="M24,24c6.628,0,12-5.372,12-12S30.628,0,24,0S12,5.372,12,12S17.372,24,24,24z M32.4,27h-1.566
	c-2.081,0.956-4.396,1.5-6.834,1.5s-4.744-0.544-6.834-1.5H15.6C8.644,27,3,32.644,3,39.6v3.9C3,45.984,5.016,48,7.5,48h33
	c2.484,0,4.5-2.016,4.5-4.5v-3.9C45,32.644,39.356,27,32.4,27z"/>
</svg>
