<?xml version="1.0" encoding="utf-8"?>
<!-- Generator: Adobe Illustrator 16.0.0, SVG Export Plug-In . SVG Version: 6.00 Build 0)  -->
<svg version="1.2" baseProfile="tiny" id="Layer_1" xmlns="http://www.w3.org/2000/svg" xmlns:xlink="http://www.w3.org/1999/xlink"
	 x="0px" y="0px" width="458.977px" height="508.08px" viewBox="0 0 458.977 508.08" xml:space="preserve">
<circle id="hidden" display="none" fill="none" stroke="#000000" stroke-width="10" cx="199.399" cy="247.5" r="146.5"/>
<circle fill="none" stroke="#025583" stroke-width="10" cx="175.399" cy="335.5" r="146.5"/>
<line fill="none" stroke="#025583" stroke-width="30" x1="235.933" y1="308.272" x2="178.294" y2="349.728"/>
<line fill="none" stroke="#025583" stroke-width="16" x1="98.908" y1="298.77" x2="153.867" y2="343.718"/>
<circle fill="#025583" cx="170.166" cy="353.25" r="24.25"/>
<circle fill="#025583" cx="240.899" cy="305" r="18"/>
<circle fill="#025583" cx="98.908" cy="298.77" r="9.96"/>
<circle fill="none" stroke="#025583" stroke-width="10" cx="175.846" cy="333.913" r="159.281"/>
<circle fill="none" stroke="#025583" stroke-width="10" cx="175.847" cy="333.914" r="150.42"/>
<circle fill="none" stroke="#025583" stroke-width="10" cx="176.166" cy="333.912" r="164.201"/>
<path fill="#025583" d="M137.657,156.999c0,0,64.582-58.077,140.051-68.058c0,0-20.192,17.126-12.517,33.051
	c2.558,5.307,10.312,10.243,22.97,5.264c0,0,21.551-6.662,14.398-41.218c0,0,84.115,14.51,124.666-74.722
	c0,0,37.742,67.319-54.563,152.103c0,0,36.003,11.789,70.66-53.042c0,0,29.308,68.466-45.951,107.317
	c0,0-19.764,11.055-17.665,31.956c0,0,9.373,26.657,25.24,8.083l15.349-22.235c0.547,77.915-62.938,125.956-62.938,125.956
	C386.445,219.544,246.801,120.089,137.657,156.999z"/>
</svg>
